<svg width="74" height="74" viewBox="0 0 74 74" fill="none" xmlns="http://www.w3.org/2000/svg">
<path d="M67.8333 9.25H6.16667C2.80583 9.37333 0.123333 12.0558 0 15.4167V58.5833C0.123333 61.9442 2.80583 64.6267 6.16667 64.75H67.8333C71.1942 64.6267 73.8767 61.9442 74 58.5833V15.4167C73.9433 13.7992 73.2753 12.2635 72.1309 11.1191C70.9865 9.97467 69.4508 9.30675 67.8333 9.25ZM67.8333 58.5833H6.16667V15.4167H67.8333V58.5833ZM43.1667 52.4167V48.5625C43.1667 43.4442 32.8683 40.8542 27.75 40.8542C22.6317 40.8542 12.3333 43.4442 12.3333 48.5625V52.4167H43.1667ZM27.75 21.5833C25.7056 21.5833 23.745 22.3955 22.2994 23.8411C20.8538 25.2866 20.0417 27.2473 20.0417 29.2917C20.0417 30.3039 20.241 31.3063 20.6284 32.2415C21.0158 33.1767 21.5836 34.0265 22.2994 34.7423C23.745 36.1879 25.7056 37 27.75 37C28.7623 37 29.7646 36.8006 30.6999 36.4132C31.6351 36.0259 32.4848 35.4581 33.2006 34.7423C33.9164 34.0265 34.4842 33.1767 34.8716 32.2415C35.2589 31.3063 35.4583 30.3039 35.4583 29.2917C35.4583 28.2794 35.2589 27.277 34.8716 26.3418C34.4842 25.4066 33.9164 24.5568 33.2006 23.8411C32.4848 23.1253 31.6351 22.5575 30.6999 22.1701C29.7646 21.7827 28.7623 21.5833 27.75 21.5833ZM43.1667 21.5833V24.6667H61.6667V21.5833H43.1667ZM43.1667 27.75V30.8333H61.6667V27.75H43.1667ZM43.1667 33.9167V37H55.5V33.9167H43.1667Z" fill="white"/>
</svg>
