<svg width="66" height="66" viewBox="0 0 66 66" fill="none" xmlns="http://www.w3.org/2000/svg">
<path d="M43.3125 34.048V56.2031C43.3125 59.3355 40.8568 61.875 37.776 61.875H13.793C10.7057 61.875 8.25 59.3355 8.25 56.2031V22.1719C8.2588 20.6703 8.85919 19.2328 9.92097 18.171C10.9828 17.1092 12.4203 16.5088 13.9219 16.5H26.0545C26.4745 16.5006 26.8901 16.5849 27.2772 16.7477C27.6643 16.9106 28.015 17.1489 28.3091 17.4488L42.3792 31.7573C42.9779 32.3695 43.3129 33.1918 43.3125 34.048Z" stroke="white" stroke-width="5" stroke-linejoin="round"/>
<path d="M25.7812 16.5V30.4219C25.7926 31.3756 26.1766 32.2871 26.851 32.9615C27.5254 33.6359 28.4369 34.0199 29.3906 34.0312H43.3125" stroke="white" stroke-width="5" stroke-linecap="round" stroke-linejoin="round"/>
<path d="M22.6875 16.5V9.79688C22.6963 8.29531 23.2967 6.85775 24.3585 5.79597C25.4203 4.73419 26.8578 4.1338 28.3594 4.125H40.4766C40.8988 4.12559 41.3168 4.20972 41.7064 4.37255C42.096 4.53538 42.4495 4.77369 42.7466 5.07375L56.8167 19.3823C57.4148 19.988 57.7501 20.805 57.75 21.6562V43.8281C57.75 46.9605 55.2943 49.5 52.2135 49.5H44.3438" stroke="white" stroke-width="5" stroke-linejoin="round"/>
<path d="M40.2188 4.125V18.0469C40.2301 19.0006 40.6141 19.9121 41.2885 20.5865C41.9629 21.2609 42.8744 21.6449 43.8281 21.6562H57.75" stroke="white" stroke-width="5" stroke-linecap="round" stroke-linejoin="round"/>
</svg>
