<svg width="67" height="67" viewBox="0 0 67 67" fill="none" xmlns="http://www.w3.org/2000/svg">
<g clip-path="url(#clip0_38_884)">
<path d="M64.6071 21.5357V52.6429C64.6071 54.2294 63.9768 55.751 62.855 56.8729C61.7331 57.9947 60.2115 58.625 58.625 58.625M58.625 58.625C57.0384 58.625 55.5168 57.9947 54.3949 56.8729C53.2731 55.751 52.6428 54.2294 52.6428 52.6429V10.7679C52.6428 10.1332 52.3907 9.5246 51.942 9.07585C51.4932 8.6271 50.8846 8.375 50.25 8.375H4.78568C4.15105 8.375 3.54242 8.6271 3.09367 9.07585C2.64493 9.5246 2.39282 10.1332 2.39282 10.7679V53.8393C2.39282 55.1085 2.89703 56.3258 3.79453 57.2233C4.69202 58.1208 5.90929 58.625 7.17854 58.625H58.625Z" stroke="white" stroke-width="5" stroke-linecap="round" stroke-linejoin="round"/>
<path d="M16.75 46.6607H38.2857M38.2857 20.3392H16.75V32.3035H38.2857V20.3392Z" stroke="white" stroke-width="4" stroke-linecap="round" stroke-linejoin="round"/>
</g>
<defs>
<clipPath id="clip0_38_884">
<rect width="67" height="67" fill="white"/>
</clipPath>
</defs>
</svg>
