<svg width="71" height="71" viewBox="0 0 71 71" fill="none" xmlns="http://www.w3.org/2000/svg">
<path d="M14.7917 56.2083V14.7917H35.5V35.5H56.2083V38.4583C58.2792 38.4583 60.2612 38.8429 62.125 39.4937V26.625L44.375 8.875H14.7917C11.5079 8.875 8.875 11.5079 8.875 14.7917V56.2083C8.875 57.7775 9.49836 59.2825 10.608 60.392C11.7175 61.5016 13.2225 62.125 14.7917 62.125H39.4937C38.8429 60.2612 38.4583 58.2792 38.4583 56.2083H14.7917ZM41.4167 13.3125L57.6875 29.5833H41.4167V13.3125ZM66.5625 51.0312L52.5104 65.0833L44.375 56.2083L47.8067 52.7767L52.5104 57.4804L63.1308 46.86L66.5625 51.0312Z" fill="white"/>
</svg>
