<svg width="170" height="119" viewBox="0 0 170 119" fill="none" xmlns="http://www.w3.org/2000/svg">
<path fill-rule="evenodd" clip-rule="evenodd" d="M114.459 48.7933H144.7V31.8589H111.109L114.459 48.7933Z" fill="#BA5251"/>
<path fill-rule="evenodd" clip-rule="evenodd" d="M104.854 0.248001H169.281V17.1824H108.21L104.854 0.248001Z" fill="#BA5251"/>
<path fill-rule="evenodd" clip-rule="evenodd" d="M117.37 63.5043H169.281V80.4329H120.726L117.37 63.5043Z" fill="#BA5251"/>
<path fill-rule="evenodd" clip-rule="evenodd" d="M64.51 64.4662L35.1145 34.9405L25.3122 80.4387H8.2998L24.1664 0.248001L64.51 40.8387L89.8029 15.3968L93.9113 34.9405L64.51 64.4662Z" fill="#474F90"/>
<path fill-rule="evenodd" clip-rule="evenodd" d="M15.1162 104.216C14.3582 104.072 13.6002 104.072 12.819 104.216L9.42808 113.593L6.03719 104.216C5.25601 104.072 4.49797 104.072 3.73994 104.216L0.516846 117.85C1.42533 118.017 2.31066 118.017 3.19021 117.85L5.15185 109.06L8.33444 117.85C9.06932 117.994 9.81 117.994 10.5275 117.85L13.7101 109.06L15.6891 117.85C16.5744 118.017 17.4598 118.017 18.3451 117.85L15.1162 104.216Z" fill="black"/>
<path fill-rule="evenodd" clip-rule="evenodd" d="M39.6626 103.899C38.1639 103.899 36.9893 104.297 36.1213 105.097C35.2591 105.892 34.8367 106.883 34.8367 108.052C34.8367 108.663 34.9408 109.187 35.1549 109.648C35.3633 110.108 35.6815 110.489 36.1039 110.8C36.5263 111.116 36.9256 111.364 37.3249 111.554C37.7242 111.744 38.1871 111.929 38.7368 112.119C39.8767 112.476 40.6348 112.77 41.034 113.023C41.4333 113.276 41.6243 113.674 41.6243 114.198C41.6243 114.705 41.4333 115.12 41.034 115.436C40.6348 115.753 40.085 115.92 39.3907 115.92C38.2102 115.92 36.8619 115.419 35.3227 114.428C35.2359 114.572 35.1954 114.993 35.1954 115.707C35.1954 116.421 35.2359 116.882 35.3227 117.072C36.5263 117.827 37.9151 118.207 39.4948 118.207C40.9067 118.207 42.0872 117.85 43.013 117.118C43.9389 116.387 44.4018 115.356 44.4018 114.037C44.4018 113.386 44.2976 112.821 44.0662 112.338C43.8347 111.854 43.4991 111.456 43.0767 111.14C42.6543 110.823 42.255 110.575 41.8731 110.408C41.4912 110.241 41.0109 110.074 40.438 109.901C39.3444 109.567 38.5863 109.273 38.1813 109.02C37.782 108.766 37.5679 108.392 37.5679 107.885C37.5679 107.401 37.7589 107.004 38.135 106.71C38.5169 106.416 39.0203 106.267 39.6511 106.267C40.6811 106.267 41.9483 106.75 43.447 107.735C43.5512 107.591 43.5917 107.171 43.5917 106.48C43.5917 105.788 43.5512 105.345 43.4644 105.138C42.2318 104.314 41.1613 103.922 39.6626 103.899Z" fill="black"/>
<path fill-rule="evenodd" clip-rule="evenodd" d="M46.0453 104.222C45.9006 104.976 45.9006 105.731 46.0453 106.485H50.0495V117.856C50.958 118.023 51.8607 118.023 52.7692 117.856V106.485H56.7735C56.9181 105.731 56.9181 104.976 56.7735 104.222H46.0453Z" fill="black"/>
<path fill-rule="evenodd" clip-rule="evenodd" d="M62.1373 115.58V112.055H68.1437C68.2884 111.301 68.2884 110.546 68.1437 109.792H62.1373V106.48H68.815C68.9596 105.725 68.9596 104.971 68.815 104.216H59.3945V117.85H68.815C68.9596 117.095 68.9596 116.341 68.815 115.586H62.1373V115.58Z" fill="black"/>
<path fill-rule="evenodd" clip-rule="evenodd" d="M97.8518 115.58V112.055H103.858C104.003 111.301 104.003 110.546 103.858 109.792H97.8518V106.48H104.529C104.674 105.725 104.674 104.971 104.529 104.216H95.1147V117.85H104.535C104.68 117.095 104.68 116.341 104.535 115.586H97.8518V115.58Z" fill="black"/>
<path fill-rule="evenodd" clip-rule="evenodd" d="M115.142 110.84L119.378 104.21C118.978 104.147 118.452 104.107 117.798 104.107C117.144 104.107 116.618 104.147 116.218 104.21L113.371 108.974L110.357 104.21C109.957 104.147 109.431 104.107 108.777 104.107C108.123 104.107 107.596 104.147 107.197 104.21L111.433 110.84L107.006 117.844C107.405 117.908 107.932 117.948 108.586 117.948C109.24 117.948 109.766 117.908 110.166 117.844L113.198 112.747L116.421 117.844C116.803 117.908 117.306 117.948 117.96 117.948C118.614 117.948 119.14 117.908 119.54 117.844L115.142 110.84Z" fill="black"/>
<path fill-rule="evenodd" clip-rule="evenodd" d="M137.003 115.58V112.055H143.01C143.154 111.301 143.154 110.546 143.01 109.792H137.003V106.48H143.681C143.826 105.725 143.826 104.971 143.681 104.216H134.26V117.85H143.681C143.826 117.095 143.826 116.341 143.681 115.586H137.003V115.58Z" fill="black"/>
<path fill-rule="evenodd" clip-rule="evenodd" d="M158.442 104.216C158.298 104.971 158.298 105.725 158.442 106.48H162.447V117.85C163.355 118.017 164.258 118.017 165.166 117.85V106.48H169.171C169.315 105.725 169.315 104.971 169.171 104.216H158.442Z" fill="black"/>
<path fill-rule="evenodd" clip-rule="evenodd" d="M153.842 112.689C154.768 112.372 155.485 111.871 155.989 111.157C156.492 110.443 156.747 109.602 156.747 108.663C156.747 107.344 156.284 106.272 155.358 105.454C154.432 104.636 153.188 104.216 151.649 104.216H146.36V117.85C147.269 118.017 148.171 118.017 149.08 117.85V113.086H151.122L154.386 117.85C155.376 118.04 156.365 118.04 157.354 117.85L153.842 112.689ZM151.632 110.8H151.504H149.039V106.48H151.632C152.349 106.48 152.916 106.67 153.339 107.067C153.761 107.465 153.969 107.989 153.969 108.663C153.969 109.337 153.761 109.861 153.339 110.235C152.916 110.61 152.349 110.8 151.632 110.8Z" fill="black"/>
<path fill-rule="evenodd" clip-rule="evenodd" d="M131.963 108.72C131.963 107.401 131.5 106.307 130.575 105.472C129.649 104.631 128.405 104.216 126.865 104.216H126.779H121.681V117.85C122.589 118.017 123.492 118.017 124.4 117.85V113.236H127.045V113.23C128.497 113.196 129.683 112.787 130.575 111.98C131.5 111.134 131.963 110.045 131.963 108.72ZM128.549 110.362C128.133 110.754 127.571 110.961 126.865 110.967H124.377V106.48H126.779H126.842C127.56 106.48 128.127 106.687 128.549 107.09C128.972 107.488 129.18 108.035 129.18 108.726C129.186 109.417 128.972 109.959 128.549 110.362Z" fill="black"/>
<path fill-rule="evenodd" clip-rule="evenodd" d="M153.842 112.689C154.768 112.372 155.485 111.871 155.989 111.157C156.492 110.443 156.747 109.602 156.747 108.663C156.747 107.344 156.284 106.272 155.358 105.454C154.432 104.636 153.188 104.216 151.649 104.216H146.36V117.85C147.269 118.017 148.171 118.017 149.08 117.85V113.086H151.122L154.386 117.85C155.376 118.04 156.365 118.04 157.354 117.85L153.842 112.689ZM151.632 110.8H151.504H149.039V106.48H151.632C152.349 106.48 152.916 106.67 153.339 107.067C153.761 107.465 153.969 107.989 153.969 108.663C153.969 109.337 153.761 109.861 153.339 110.235C152.916 110.61 152.349 110.8 151.632 110.8Z" fill="black"/>
<path fill-rule="evenodd" clip-rule="evenodd" d="M79.0457 112.689C79.9715 112.372 80.6891 111.871 81.1925 111.157C81.6959 110.443 81.9505 109.602 81.9505 108.663C81.9505 107.344 81.4876 106.272 80.5618 105.454C79.6359 104.636 78.3918 104.216 76.8526 104.216H71.5637V117.85C72.4722 118.017 73.3749 118.017 74.2834 117.85V113.086H76.326L79.5896 117.85C80.5791 118.04 81.5686 118.04 82.5581 117.85L79.0457 112.689ZM76.8295 110.8H76.7022H74.2371V106.48H76.8295C77.547 106.48 78.1141 106.67 78.5365 107.067C78.9589 107.465 79.1672 107.989 79.1672 108.663C79.1672 109.337 78.9589 109.861 78.5365 110.235C78.1199 110.61 77.547 110.8 76.8295 110.8Z" fill="black"/>
<path fill-rule="evenodd" clip-rule="evenodd" d="M27.8465 104.216C27.482 104.147 27.1174 104.107 26.7529 104.107H26.5793L26.5735 104.112C26.2379 104.118 25.9023 104.153 25.5666 104.216L19.9421 117.85C20.8911 118.04 21.8401 118.04 22.7891 117.85L23.9695 114.832H29.4899L30.6703 117.85C31.6193 118.04 32.5683 118.04 33.5173 117.85L27.8465 104.216ZM24.8491 112.539L26.7471 107.712L28.6451 112.539H24.8491Z" fill="black"/>
</svg>
