<?xml version="1.0" standalone="no"?>
<!DOCTYPE svg PUBLIC "-//W3C//DTD SVG 20010904//EN"
 "http://www.w3.org/TR/2001/REC-SVG-20010904/DTD/svg10.dtd">
<svg version="1.0" xmlns="http://www.w3.org/2000/svg"
 width="210.000000pt" height="200.000000pt" viewBox="0 0 210.000000 200.000000"
 preserveAspectRatio="xMidYMid meet">
<metadata>
Created by potrace 1.16, written by Peter Selinger 2001-2019
</metadata>
<g transform="translate(0.000000,200.000000) scale(0.100000,-0.100000)"
fill="#000000" stroke="none">
<path d="M1323 1479 c-17 -5 -41 -21 -52 -35 -20 -26 -21 -38 -21 -386 l0
-359 24 -24 c55 -55 195 -55 244 0 22 26 22 27 22 389 l0 363 -23 21 c-41 39
-122 52 -194 31z m71 -149 c30 0 66 4 80 10 l26 10 0 -320 0 -320 -27 -17
c-36 -23 -121 -23 -157 0 l-26 17 0 314 c0 172 3 316 6 319 4 3 15 2 25 -3 10
-6 42 -10 73 -10z"/>
<path d="M1015 1325 c-5 -2 -21 -6 -35 -9 -14 -3 -35 -15 -48 -26 -22 -21 -22
-24 -22 -310 0 -285 0 -290 22 -310 55 -51 181 -51 236 0 22 20 22 25 22 309
l0 288 -24 22 c-31 29 -113 49 -151 36z m35 -160 c19 0 50 3 68 7 l32 8 0
-240 c0 -238 0 -239 -22 -252 -13 -7 -48 -12 -78 -12 -30 0 -65 5 -77 12 -23
13 -23 14 -23 252 l0 240 33 -8 c17 -4 48 -7 67 -7z"/>
<path d="M613 1165 c-17 -7 -36 -22 -42 -34 -7 -12 -11 -97 -11 -225 0 -198 1
-206 23 -231 48 -55 188 -55 243 0 24 24 24 27 24 224 0 124 -4 209 -11 224
-6 13 -26 32 -45 41 -42 20 -137 21 -181 1z m92 -140 c28 0 62 3 78 8 l27 7 0
-165 0 -165 -26 -17 c-36 -23 -121 -23 -157 0 l-27 17 0 165 0 165 28 -7 c15
-5 50 -8 77 -8z"/>
</g>
</svg>
