<?xml version="1.0" standalone="no"?>
<!DOCTYPE svg PUBLIC "-//W3C//DTD SVG 20010904//EN"
 "http://www.w3.org/TR/2001/REC-SVG-20010904/DTD/svg10.dtd">
<svg version="1.0" xmlns="http://www.w3.org/2000/svg"
 width="229.000000pt" height="218.000000pt" viewBox="0 0 229.000000 218.000000"
 preserveAspectRatio="xMidYMid meet">
<metadata>
Created by potrace 1.16, written by Peter Selinger 2001-2019
</metadata>
<g transform="translate(0.000000,218.000000) scale(0.100000,-0.100000)"
fill="#000000" stroke="none">
<path d="M1010 1427 c-79 -52 -95 -153 -44 -267 l28 -62 -25 -19 c-13 -10 -32
-19 -42 -19 -22 0 -97 37 -97 49 0 5 9 28 20 52 11 26 20 66 20 97 0 46 -4 57
-34 90 -31 33 -39 37 -85 37 -44 0 -55 -4 -83 -33 -30 -30 -33 -38 -33 -95 0
-45 6 -74 23 -106 13 -24 22 -45 20 -46 -2 -1 -30 -16 -63 -33 -79 -39 -98
-62 -99 -115 l-1 -42 130 -5 130 -5 1 -35 0 -35 310 0 309 0 3 37 3 37 127 3
127 3 -1 42 c-1 52 -21 76 -89 110 -76 39 -77 39 -52 81 17 28 22 53 22 104 0
63 -2 70 -33 100 -28 29 -39 33 -83 33 -46 0 -54 -4 -85 -37 -30 -33 -34 -44
-34 -91 0 -36 8 -69 24 -100 25 -51 25 -53 -31 -81 -41 -21 -62 -20 -93 3
l-24 19 21 44 c62 123 46 236 -40 288 -44 27 -106 26 -147 -3z m142 -57 c49
-53 46 -105 -13 -247 -12 -30 -11 -34 11 -59 14 -14 54 -41 90 -59 73 -37 95
-58 105 -97 l7 -28 -266 0 c-206 0 -266 3 -266 13 0 30 43 79 88 100 127 59
148 87 113 154 -50 98 -49 183 1 230 44 40 88 38 130 -7z m-362 -40 c42 -23
45 -117 4 -174 -25 -36 -18 -74 19 -96 17 -11 36 -21 42 -23 5 -2 -7 -20 -28
-40 l-36 -37 -116 0 c-63 0 -115 3 -115 8 1 18 20 34 76 61 32 16 68 38 78 50
19 20 18 22 -8 80 -14 32 -26 76 -26 97 0 65 56 103 110 74z m678 -10 c30 -29
29 -88 -4 -161 -26 -58 -27 -60 -8 -80 10 -12 46 -34 78 -50 56 -27 75 -43 76
-61 0 -5 -51 -8 -114 -8 l-113 0 -38 35 c-20 20 -36 37 -34 38 88 48 95 60 69
113 -43 82 -44 150 -3 182 25 18 66 15 91 -8z"/>
</g>
</svg>
