<?xml version="1.0" standalone="no"?>
<!DOCTYPE svg PUBLIC "-//W3C//DTD SVG 20010904//EN"
 "http://www.w3.org/TR/2001/REC-SVG-20010904/DTD/svg10.dtd">
<svg version="1.0" xmlns="http://www.w3.org/2000/svg"
 width="188.000000pt" height="200.000000pt" viewBox="0 0 188.000000 200.000000"
 preserveAspectRatio="xMidYMid meet">

<g transform="translate(0.000000,200.000000) scale(0.100000,-0.100000)"
fill="#000000" stroke="none">
<path d="M880 1432 c-26 -21 -37 -87 -22 -131 10 -29 9 -32 -39 -66 -45 -32
-49 -38 -49 -75 l0 -40 160 0 160 0 0 40 c0 37 -4 43 -50 76 -45 32 -48 37
-40 60 39 102 -45 197 -120 136z m82 -48 c9 -19 9 -36 0 -70 -17 -62 -17 -60
38 -100 28 -20 50 -40 50 -45 0 -5 -54 -9 -120 -9 -66 0 -120 4 -120 9 0 5 23
26 51 46 45 32 50 39 44 63 -15 60 -16 91 -6 111 16 29 49 27 63 -5z"/>
<path d="M686 1151 c-3 -5 0 -14 8 -20 10 -8 16 -8 25 2 6 8 8 17 4 20 -9 10
-31 9 -37 -2z"/>
<path d="M1136 1151 c-7 -11 18 -33 27 -24 4 3 7 12 7 20 0 15 -26 18 -34 4z"/>
<path d="M591 1086 c-28 -33 22 -83 55 -55 8 7 14 24 12 38 -2 20 -9 27 -29
29 -14 2 -31 -4 -38 -12z"/>
<path d="M1207 1093 c-12 -12 -7 -50 8 -63 32 -27 82 23 55 55 -13 15 -51 20
-63 8z"/>
<path d="M585 971 c-8 -15 3 -31 21 -31 9 0 14 7 12 17 -4 20 -24 28 -33 14z"/>
<path d="M1247 974 c-14 -14 -7 -35 11 -32 9 2 17 10 17 17 0 16 -18 25 -28
15z"/>
<path d="M553 896 c-23 -20 -28 -32 -28 -73 0 -26 4 -58 8 -70 7 -18 3 -25
-23 -38 -50 -26 -70 -52 -70 -90 l0 -35 165 0 165 0 0 28 c0 35 -21 65 -64 92
l-35 21 6 69 c5 64 4 70 -20 94 -33 32 -68 33 -104 2z m77 -31 c12 -15 10 -72
-5 -122 -6 -18 2 -28 44 -58 28 -20 51 -41 51 -46 0 -5 -54 -9 -120 -9 -66 0
-120 4 -120 9 0 5 23 23 51 41 48 29 51 33 45 63 -18 97 -18 103 -1 120 20 21
39 22 55 2z"/>
<path d="M1203 894 c-24 -24 -25 -30 -20 -94 l6 -69 -35 -21 c-43 -27 -64 -57
-64 -92 l0 -28 165 0 165 0 0 35 c0 38 -20 64 -70 90 -26 13 -30 20 -23 38 4
12 8 44 8 70 0 41 -5 53 -28 73 -36 31 -71 30 -104 -2z m76 -23 c16 -11 19
-63 6 -123 -7 -36 -7 -37 44 -68 28 -18 51 -36 51 -41 0 -5 -54 -9 -120 -9
-66 0 -120 4 -120 9 0 5 23 26 51 46 42 30 50 40 44 58 -29 98 -7 160 44 128z"/>
<path d="M812 633 c4 -21 33 -25 33 -3 0 8 -8 16 -18 18 -14 3 -18 -1 -15 -15z"/>
<path d="M1014 639 c-3 -6 -2 -15 4 -21 13 -13 32 -2 32 18 0 16 -26 19 -36 3z"/>
<path d="M890 615 c-26 -32 13 -81 48 -59 22 14 27 41 12 59 -16 19 -44 19
-60 0z"/>
</g>
</svg>
