<?xml version="1.0" standalone="no"?>
<!DOCTYPE svg PUBLIC "-//W3C//DTD SVG 20010904//EN"
 "http://www.w3.org/TR/2001/REC-SVG-20010904/DTD/svg10.dtd">
<svg version="1.0" xmlns="http://www.w3.org/2000/svg"
 width="257.000000pt" height="163.000000pt" viewBox="0 0 257.000000 163.000000"
 preserveAspectRatio="xMidYMid meet">

<g transform="translate(0.000000,163.000000) scale(0.100000,-0.100000)"
fill="#000000" stroke="none">
<path d="M790 1043 c0 -16 6 -23 20 -23 20 0 20 -7 20 -365 l0 -365 233 -2
232 -3 3 -35 c3 -34 0 -37 -90 -98 -51 -34 -100 -62 -109 -62 -25 0 -52 -36
-44 -59 13 -42 85 -35 85 8 0 14 134 111 153 111 14 0 7 -61 -9 -86 -16 -23
-15 -26 1 -44 20 -23 45 -26 63 -8 15 15 16 50 1 65 -6 6 -9 26 -7 46 l3 36
80 -49 c45 -27 87 -61 96 -77 9 -15 23 -30 33 -31 19 -4 56 24 56 43 0 16 -33
45 -50 45 -8 0 -60 27 -117 61 -103 61 -103 61 -103 100 l0 39 235 0 235 0 0
365 c0 358 0 365 20 365 13 0 20 7 20 20 0 19 -9 20 -530 22 l-530 3 0 -22z
m970 -368 l0 -345 -440 2 -441 3 1 338 c0 185 0 339 0 342 0 3 198 5 440 5
l440 0 0 -345z"/>
<path d="M1604 884 c-20 -19 -24 -31 -20 -50 6 -21 -7 -42 -80 -129 -79 -94
-90 -103 -128 -108 -38 -6 -44 -3 -83 36 -24 23 -43 51 -43 63 0 49 -79 73
-114 35 -11 -12 -16 -31 -14 -50 4 -45 -94 -170 -134 -170 -59 -2 -88 -71 -48
-111 44 -44 115 -12 108 49 -2 25 8 44 52 100 48 60 60 69 95 74 37 5 43 3 83
-36 23 -23 42 -51 42 -63 0 -53 86 -75 116 -30 8 14 14 36 12 49 -4 37 166
237 202 237 34 0 57 19 65 52 5 21 1 33 -19 52 -14 15 -34 26 -46 26 -11 0
-32 -11 -46 -26z m64 -41 c-2 -10 -10 -18 -18 -18 -8 0 -16 8 -18 18 -2 12 3
17 18 17 15 0 20 -5 18 -17z m-462 -144 c9 -15 -11 -33 -30 -26 -9 4 -13 13
-10 22 7 17 30 20 40 4z m202 -166 c5 -17 -26 -29 -40 -15 -6 6 -7 15 -3 22 9
14 37 9 43 -7z m-406 -105 c-17 -17 -47 9 -30 29 10 12 13 12 27 -1 11 -12 12
-19 3 -28z"/>
</g>
</svg>
