<?xml version="1.0" standalone="no"?>
<!DOCTYPE svg PUBLIC "-//W3C//DTD SVG 20010904//EN"
 "http://www.w3.org/TR/2001/REC-SVG-20010904/DTD/svg10.dtd">
<svg version="1.0" xmlns="http://www.w3.org/2000/svg"
 width="234.000000pt" height="207.000000pt" viewBox="0 0 234.000000 207.000000"
 preserveAspectRatio="xMidYMid meet">

<g transform="translate(0.000000,207.000000) scale(0.100000,-0.100000)"
fill="#000000" stroke="none">
<path d="M570 965 l0 -235 43 0 c33 0 48 -6 70 -27 15 -16 38 -39 51 -53 63
-64 97 -90 116 -90 12 0 33 -13 48 -29 41 -43 68 -54 104 -42 21 8 43 8 73 0
36 -9 48 -8 82 9 22 11 45 28 52 36 8 9 21 16 30 16 28 0 80 39 87 65 4 17 20
31 50 45 26 11 51 31 62 49 9 17 22 31 28 31 6 0 21 11 34 25 27 29 35 26 43
-15 6 -29 9 -30 57 -30 l50 0 0 240 0 240 -126 0 c-122 0 -125 -1 -119 -20 6
-20 4 -21 -42 -15 -26 4 -95 6 -153 6 -146 1 -178 1 -235 2 -27 1 -78 -2 -112
-7 -60 -8 -63 -8 -63 13 0 20 -4 21 -115 21 l-115 0 0 -235z m170 179 c0 -8
-20 -91 -45 -184 -25 -93 -45 -171 -45 -174 0 -3 -7 -6 -15 -6 -13 0 -15 28
-15 190 l0 190 60 0 c48 0 60 -3 60 -16z m870 -179 c0 -155 -3 -195 -13 -195
-9 0 -35 67 -71 182 -32 100 -60 187 -63 195 -4 10 12 13 71 13 l76 0 0 -195z
m-606 166 c3 -5 -14 -21 -39 -35 -46 -27 -80 -66 -109 -124 -22 -42 -13 -87
21 -109 21 -14 30 -15 61 -4 21 7 55 27 76 44 35 27 53 33 135 42 l96 12 123
-61 c67 -33 122 -65 122 -70 0 -18 -33 -46 -54 -46 -12 0 -44 18 -72 39 -47
35 -53 37 -67 24 -14 -14 -11 -19 25 -50 23 -19 49 -38 59 -44 23 -12 15 -33
-17 -48 -39 -17 -54 -14 -101 25 -40 33 -46 35 -60 22 -13 -13 -8 -20 38 -61
52 -46 52 -47 34 -67 -26 -28 -47 -25 -95 15 -46 38 -48 39 -70 25 -12 -9 -8
-17 28 -48 23 -21 42 -41 42 -45 0 -11 -57 -37 -81 -37 -50 0 -241 134 -349
244 l-45 47 28 107 c49 194 44 182 80 183 18 0 59 6 92 14 74 16 92 18 99 6z
m331 -9 l90 -7 32 -100 c18 -55 36 -108 39 -118 4 -14 -24 -3 -117 44 l-123
61 -110 -12 c-91 -10 -116 -16 -136 -34 -67 -61 -120 -75 -120 -32 0 26 39 89
73 117 12 10 55 36 96 58 67 35 80 38 130 34 31 -2 97 -7 146 -11z m-619 -379
c-7 -7 -26 7 -26 19 0 6 6 6 15 -2 9 -7 13 -15 11 -17z m62 -55 c7 -7 12 -15
12 -20 0 -12 -28 2 -34 18 -7 17 6 18 22 2z m78 -69 c19 -22 19 -22 -3 -10
-24 12 -39 31 -25 31 5 0 17 -10 28 -21z"/>
</g>
</svg>
