<?xml version="1.0" standalone="no"?>
<!DOCTYPE svg PUBLIC "-//W3C//DTD SVG 20010904//EN"
 "http://www.w3.org/TR/2001/REC-SVG-20010904/DTD/svg10.dtd">
<svg version="1.0" xmlns="http://www.w3.org/2000/svg"
 width="132.000000pt" height="170.000000pt" viewBox="0 0 132.000000 170.000000"
 preserveAspectRatio="xMidYMid meet">

<g transform="translate(0.000000,170.000000) scale(0.100000,-0.100000)"
fill="#000000" stroke="none">
<path d="M750 1275 c0 -108 1 -115 20 -115 19 0 20 7 20 115 0 108 -1 115 -20
115 -19 0 -20 -7 -20 -115z"/>
<path d="M501 1316 c-10 -11 -2 -33 40 -105 28 -50 55 -93 59 -96 4 -2 14 1
23 8 15 11 10 23 -41 110 -31 53 -60 97 -63 97 -4 0 -12 -6 -18 -14z"/>
<path d="M967 1252 c-72 -126 -70 -120 -48 -131 17 -10 25 0 75 85 31 52 56
97 56 99 0 2 -9 9 -19 15 -17 9 -24 1 -64 -68z"/>
<path d="M310 1125 c-16 -19 -25 -11 92 -78 92 -53 98 -55 108 -37 11 21 3 28
-121 98 -65 37 -63 37 -79 17z"/>
<path d="M1125 1094 c-91 -51 -110 -67 -101 -83 12 -18 27 -13 119 40 59 34
87 56 85 67 -5 26 -20 23 -103 -24z"/>
<path d="M651 1084 c-91 -46 -136 -129 -129 -238 3 -53 11 -74 50 -137 74
-120 73 -115 78 -249 l5 -125 33 -3 c24 -2 32 -8 32 -23 0 -16 7 -19 49 -19
44 0 49 2 44 20 -5 17 0 20 29 20 l35 0 5 118 c6 124 12 144 67 232 72 115 85
175 59 264 -17 56 -100 141 -153 155 -71 19 -146 14 -204 -15z m180 -25 c86
-29 142 -105 142 -194 0 -54 -11 -81 -73 -176 -21 -33 -44 -85 -51 -115 -11
-47 -15 -54 -36 -54 l-23 0 0 139 0 140 30 21 c18 13 27 26 23 35 -6 18 -34
20 -51 3 -9 -9 -20 -9 -48 1 -30 11 -38 11 -45 0 -6 -10 0 -22 21 -39 l30 -25
0 -137 0 -138 -24 0 c-20 0 -25 7 -31 37 -8 43 -24 77 -84 179 -23 39 -44 86
-47 105 -10 57 13 116 61 164 60 60 131 79 206 54z m9 -599 c0 -6 -30 -10 -70
-10 -40 0 -70 4 -70 10 0 6 30 10 70 10 40 0 70 -4 70 -10z m0 -70 c0 -6 -30
-10 -70 -10 -40 0 -70 4 -70 10 0 6 30 10 70 10 40 0 70 -4 70 -10z"/>
<path d="M1178 882 c-100 -2 -108 -4 -108 -22 0 -19 7 -20 115 -20 107 0 115
1 115 19 0 11 -3 21 -7 23 -5 2 -56 2 -115 0z"/>
<path d="M240 860 c0 -19 7 -20 115 -20 108 0 115 1 115 20 0 19 -7 20 -115
20 -108 0 -115 -1 -115 -20z"/>
<path d="M397 674 c-87 -49 -96 -57 -87 -75 6 -10 13 -19 15 -19 2 0 47 25
100 56 68 40 95 61 91 71 -3 8 -6 17 -6 19 0 10 -21 0 -113 -52z"/>
<path d="M1023 714 c-3 -8 -2 -19 3 -24 10 -9 183 -110 189 -110 3 0 9 8 14
18 9 16 -3 26 -88 75 -54 32 -101 57 -105 57 -4 0 -9 -7 -13 -16z"/>
</g>
</svg>
