<?xml version="1.0" standalone="no"?>
<!DOCTYPE svg PUBLIC "-//W3C//DTD SVG 20010904//EN"
 "http://www.w3.org/TR/2001/REC-SVG-20010904/DTD/svg10.dtd">
<svg version="1.0" xmlns="http://www.w3.org/2000/svg"
 width="161.000000pt" height="153.000000pt" viewBox="0 0 161.000000 153.000000"
 preserveAspectRatio="xMidYMid meet">

<g transform="translate(0.000000,153.000000) scale(0.100000,-0.100000)"
fill="#000000" stroke="none">
<path d="M292 788 l3 -553 553 -3 552 -2 0 30 0 30 -525 0 -525 0 0 50 c0 47
2 50 26 50 22 0 25 4 22 28 -2 21 -8 27 -25 26 -21 -1 -23 4 -23 53 0 50 1 53
25 53 20 0 25 5 25 25 0 20 -5 25 -25 25 -24 0 -25 3 -25 55 0 52 1 55 25 55
20 0 25 5 25 25 0 20 -5 25 -25 25 -24 0 -25 3 -25 55 0 52 1 55 25 55 20 0
25 5 25 25 0 20 -5 25 -25 25 -24 0 -25 3 -25 55 0 52 1 55 25 55 20 0 25 5
25 25 0 20 -5 25 -25 25 -24 0 -25 3 -25 56 0 52 1 55 23 52 18 -2 23 2 25 25
3 23 0 27 -22 27 -24 0 -26 3 -26 50 0 49 -1 50 -30 50 l-30 0 2 -552z"/>
<path d="M957 1233 c-4 -3 -7 -206 -7 -450 l0 -443 95 0 95 0 0 450 0 450 -88
0 c-49 0 -92 -3 -95 -7z m128 -443 l0 -395 -37 -3 -38 -3 0 401 0 401 38 -3
37 -3 0 -395z"/>
<path d="M480 685 l0 -345 90 0 90 0 0 345 0 345 -90 0 -90 0 0 -345z m130 -5
l0 -290 -40 0 -40 0 0 290 0 290 40 0 40 0 0 -290z"/>
<path d="M720 590 l0 -250 90 0 90 0 0 250 0 250 -90 0 -90 0 0 -250z m128 3
l-3 -198 -37 -3 -38 -3 0 200 0 201 40 0 40 0 -2 -197z"/>
<path d="M1190 500 l0 -160 95 0 96 0 -3 158 -3 157 -92 3 -93 3 0 -161z m130
-6 l0 -105 -37 3 -38 3 -3 103 -3 102 41 0 40 0 0 -106z"/>
</g>
</svg>
