<?xml version="1.0" standalone="no"?>
<!DOCTYPE svg PUBLIC "-//W3C//DTD SVG 20010904//EN"
 "http://www.w3.org/TR/2001/REC-SVG-20010904/DTD/svg10.dtd">
<svg version="1.0" xmlns="http://www.w3.org/2000/svg"
 width="296.000000pt" height="185.000000pt" viewBox="0 0 296.000000 185.000000"
 preserveAspectRatio="xMidYMid meet">
<metadata>
Created by potrace 1.16, written by Peter Selinger 2001-2019
</metadata>
<g transform="translate(0.000000,185.000000) scale(0.100000,-0.100000)"
fill="#000000" stroke="none">
<path d="M1550 1733 c-31 -11 -60 -47 -60 -74 0 -15 -3 -30 -7 -32 -5 -3 -53
1 -108 8 -259 35 -359 45 -366 38 -8 -9 -119 -887 -119 -938 l0 -31 158 -18
c86 -10 163 -23 170 -28 6 -6 12 -23 12 -39 0 -35 -1 -35 178 -12 126 16 141
16 270 0 184 -23 182 -23 182 12 0 16 6 33 13 39 6 5 83 18 170 28 156 18 157
19 157 44 0 47 -113 935 -120 943 -6 7 -233 -16 -382 -39 -34 -5 -38 -3 -38
16 0 32 -17 58 -50 75 -31 16 -36 17 -60 8z m-245 -148 c110 -13 221 -28 248
-31 l47 -7 0 -115 c0 -124 -10 -152 -54 -152 -45 0 -51 14 -56 122 l-5 103
-27 3 -28 3 0 -103 c0 -85 4 -109 20 -136 31 -51 93 -66 150 -37 49 25 60 60
60 190 0 63 4 115 8 115 21 0 236 -30 239 -34 4 -3 -77 -680 -95 -801 l-8 -50
-44 3 c-25 1 -94 9 -155 17 -93 13 -222 29 -587 74 -32 4 -60 10 -63 13 -5 5
91 817 100 844 2 6 14 10 27 8 13 -2 113 -15 223 -29z m784 -404 c55 -447 55
-430 -4 -431 -16 0 -69 -6 -117 -14 -62 -9 -88 -10 -89 -2 -2 17 -2 19 46 403
25 200 45 376 45 392 0 32 -6 35 -103 46 -32 4 -56 9 -54 12 2 2 49 9 103 17
71 9 102 10 110 2 7 -6 35 -197 63 -425z"/>
</g>
</svg>
