<?xml version="1.0" standalone="no"?>
<!DOCTYPE svg PUBLIC "-//W3C//DTD SVG 20010904//EN"
 "http://www.w3.org/TR/2001/REC-SVG-20010904/DTD/svg10.dtd">
<svg version="1.0" xmlns="http://www.w3.org/2000/svg"
 width="238.000000pt" height="172.000000pt" viewBox="0 0 238.000000 172.000000"
 preserveAspectRatio="xMidYMid meet">

<g transform="translate(0.000000,172.000000) scale(0.100000,-0.100000)"
fill="#000000" stroke="none">
<path d="M667 1344 c-27 -53 -46 -98 -43 -101 2 -2 18 3 35 12 l31 16 0 -451
0 -450 -50 0 c-47 0 -50 -2 -50 -25 0 -23 3 -25 50 -25 l50 0 0 -50 c0 -49 1
-50 30 -50 29 0 30 1 30 50 l0 50 445 0 c245 0 445 -3 445 -7 -1 -5 -7 -19
-15 -33 -8 -14 -14 -28 -15 -33 0 -4 45 15 100 43 55 28 100 54 100 58 0 7
-182 102 -195 102 -3 0 1 -13 10 -30 8 -16 15 -34 15 -40 0 -7 -139 -10 -440
-10 -300 0 -440 3 -440 10 0 12 88 168 98 174 4 2 51 -27 105 -65 54 -38 102
-67 106 -64 5 2 44 64 87 137 43 73 79 134 80 136 1 2 57 -31 124 -72 67 -42
125 -76 129 -76 4 0 17 26 28 58 39 104 122 315 127 319 2 2 28 -3 56 -11 58
-17 70 -15 70 15 0 14 -11 22 -46 31 -26 7 -48 18 -51 24 -2 6 10 46 27 88 35
88 36 101 13 110 -22 9 -25 4 -64 -96 -19 -49 -38 -88 -44 -88 -5 0 -55 13
-110 29 -55 16 -103 27 -106 25 -3 -1 -41 -64 -85 -138 -43 -75 -83 -136 -88
-136 -5 0 -53 27 -106 60 -53 33 -101 60 -106 60 -5 0 -43 -57 -83 -127 -41
-71 -75 -130 -77 -131 -1 -2 -23 10 -48 28 l-46 31 0 285 0 285 30 -16 c16 -8
33 -15 38 -15 5 0 -14 45 -42 100 -28 55 -53 100 -56 100 -3 0 -27 -43 -53
-96z m847 -375 c39 -12 72 -22 74 -24 4 -4 -109 -297 -119 -309 -7 -8 -199 99
-199 111 0 7 79 145 117 206 13 20 31 37 40 37 9 0 48 -9 87 -21z m-404 -190
c44 -28 80 -54 78 -58 -21 -44 -132 -221 -139 -221 -19 0 -160 102 -157 113 6
22 122 217 130 217 4 0 44 -23 88 -51z m-322 -168 c12 -11 22 -22 22 -25 0 -4
-13 -30 -30 -59 l-30 -52 0 78 c0 42 3 77 8 77 4 -1 17 -9 30 -19z"/>
</g>
</svg>
