<?xml version="1.0" standalone="no"?>
<!DOCTYPE svg PUBLIC "-//W3C//DTD SVG 20010904//EN"
 "http://www.w3.org/TR/2001/REC-SVG-20010904/DTD/svg10.dtd">
<svg version="1.0" xmlns="http://www.w3.org/2000/svg"
 width="232.000000pt" height="206.000000pt" viewBox="0 0 232.000000 206.000000"
 preserveAspectRatio="xMidYMid meet">

<g transform="translate(0.000000,206.000000) scale(0.100000,-0.100000)"
fill="#000000" stroke="none">
<path d="M937 1539 c-46 -11 -130 -53 -176 -88 -56 -43 -119 -137 -142 -213
-32 -104 -24 -229 19 -319 114 -236 395 -329 619 -205 l47 27 183 -183 183
-183 52 53 53 52 -182 183 -182 182 30 63 c145 300 -75 646 -406 641 -33 -1
-77 -5 -98 -10z m264 -71 c84 -39 153 -107 196 -196 35 -70 38 -83 38 -161 0
-163 -80 -293 -223 -363 -62 -31 -73 -33 -172 -33 -97 0 -110 2 -165 30 -78
39 -154 114 -191 190 -27 55 -29 69 -29 170 0 101 2 115 29 170 49 100 137
174 251 212 64 21 200 11 266 -19z m344 -828 c152 -152 159 -161 142 -177 -16
-17 -25 -9 -182 147 -126 126 -162 167 -153 177 6 7 16 13 22 13 6 0 83 -72
171 -160z"/>
<path d="M978 1384 c-63 -34 -79 -136 -36 -224 28 -57 29 -55 -55 -95 -65 -30
-86 -56 -94 -115 l-6 -40 253 0 253 0 -6 46 c-6 57 -31 84 -108 119 -32 14
-59 27 -59 28 0 1 11 29 25 62 13 33 25 78 25 101 0 47 -32 102 -70 121 -33
17 -89 16 -122 -3z m117 -59 c33 -32 32 -84 0 -150 -42 -84 -32 -104 72 -149
41 -18 81 -52 72 -61 -7 -6 -384 -8 -386 -1 -8 18 3 29 60 57 65 33 107 65
107 83 0 6 -9 27 -19 47 -43 80 -45 164 -3 188 30 18 72 12 97 -14z"/>
</g>
</svg>
