<?xml version="1.0" standalone="no"?>
<!DOCTYPE svg PUBLIC "-//W3C//DTD SVG 20010904//EN"
 "http://www.w3.org/TR/2001/REC-SVG-20010904/DTD/svg10.dtd">
<svg version="1.0" xmlns="http://www.w3.org/2000/svg"
 width="129.000000pt" height="173.000000pt" viewBox="0 0 129.000000 173.000000"
 preserveAspectRatio="xMidYMid meet">

<g transform="translate(0.000000,173.000000) scale(0.100000,-0.100000)"
fill="#000000" stroke="none">
<path d="M597 1430 c-206 -37 -368 -144 -440 -290 -32 -64 -32 -66 -32 -215 0
-140 2 -154 26 -205 14 -30 38 -69 52 -86 26 -31 26 -31 7 -49 -17 -15 -20
-31 -20 -96 0 -93 7 -102 115 -154 82 -40 172 -65 231 -65 l41 0 6 133 c4 72
11 206 18 295 6 90 8 166 6 169 -3 2 -73 -46 -156 -106 -83 -61 -153 -111
-156 -111 -3 0 -5 13 -5 29 0 27 18 43 180 163 217 159 208 153 213 148 2 -3
-2 -79 -9 -170 -7 -91 -13 -220 -13 -287 l-1 -123 48 0 c77 0 229 37 307 73
99 47 202 145 241 229 28 61 29 69 29 213 0 143 -1 153 -27 208 -62 132 -188
229 -360 277 -83 23 -230 33 -301 20z m298 -68 c145 -45 266 -137 315 -236 79
-164 -10 -353 -210 -449 -121 -58 -290 -89 -290 -52 0 8 7 112 16 231 8 118
14 221 12 229 -2 8 -86 -49 -218 -147 -118 -87 -221 -162 -229 -165 -17 -8
-52 32 -89 102 -38 72 -38 178 1 252 66 127 217 223 407 257 53 10 227 -4 285
-22z m-655 -659 c0 -18 -2 -33 -5 -33 -7 0 -47 81 -56 115 l-8 30 34 -39 c25
-28 35 -49 35 -73z m986 62 c-29 -96 -120 -186 -247 -244 -62 -29 -191 -61
-244 -61 -23 0 -25 3 -25 49 l0 48 69 7 c154 14 299 81 396 182 33 34 61 63
62 63 1 1 -4 -19 -11 -44z m-671 -27 c-3 -18 -7 -86 -11 -150 -7 -135 -1 -130
-108 -102 -69 18 -168 63 -164 75 4 10 270 209 280 209 4 0 5 -15 3 -32z
m-244 -258 c35 -16 96 -37 134 -46 39 -9 76 -18 83 -20 7 -2 12 -21 12 -49 0
-40 -2 -45 -23 -45 -61 0 -214 57 -259 98 -15 13 -27 92 -14 92 2 0 32 -13 67
-30z"/>
</g>
</svg>
