<?xml version="1.0" standalone="no"?>
<!DOCTYPE svg PUBLIC "-//W3C//DTD SVG 20010904//EN"
 "http://www.w3.org/TR/2001/REC-SVG-20010904/DTD/svg10.dtd">
<svg version="1.0" xmlns="http://www.w3.org/2000/svg"
 width="149.000000pt" height="150.000000pt" viewBox="0 0 149.000000 150.000000"
 preserveAspectRatio="xMidYMid meet">

<g transform="translate(0.000000,150.000000) scale(0.100000,-0.100000)"
fill="#000000" stroke="none">
<path d="M424 1400 c-33 -13 -72 -66 -79 -109 -7 -44 8 -110 36 -160 23 -40
25 -38 -68 -81 -70 -33 -93 -61 -101 -125 l-5 -45 273 0 273 0 -7 41 c-12 73
-30 94 -111 133 -41 20 -75 39 -75 42 0 4 9 21 19 38 40 67 45 152 11 215 -26
49 -108 75 -166 51z m107 -69 c38 -39 40 -98 4 -165 -45 -84 -33 -110 71 -157
53 -23 84 -50 84 -73 0 -3 -94 -6 -210 -6 -169 0 -210 3 -210 13 0 19 29 44
75 63 56 23 105 62 105 84 0 10 -11 42 -25 72 -27 58 -33 134 -12 160 35 45
79 48 118 9z"/>
<path d="M1155 1391 c-68 -47 -84 -144 -40 -239 14 -30 25 -56 25 -58 0 -2
-31 -19 -69 -38 -85 -44 -111 -74 -111 -132 l0 -44 265 0 265 0 0 38 c0 59
-30 97 -110 137 -38 19 -70 38 -70 42 0 4 10 27 22 52 61 126 14 248 -99 258
-37 3 -55 -1 -78 -16z m100 -41 c40 -15 60 -71 45 -129 -6 -25 -20 -60 -31
-77 -37 -61 -25 -81 81 -134 64 -32 93 -57 84 -72 -7 -11 -424 -10 -424 0 0
20 31 44 98 77 96 46 102 61 63 145 -40 85 -41 132 -2 171 32 31 45 34 86 19z"/>
<path d="M420 795 c-13 -16 12 -49 130 -178 44 -48 46 -48 62 -30 17 18 14 23
-70 120 -48 56 -92 102 -98 102 -6 1 -17 -6 -24 -14z"/>
<path d="M1161 706 c-89 -102 -90 -104 -70 -122 11 -10 23 -14 28 -8 20 22
147 171 160 187 11 14 11 20 1 32 -7 8 -16 15 -21 15 -4 0 -48 -47 -98 -104z"/>
<path d="M764 628 c-59 -55 -64 -140 -13 -240 11 -22 19 -41 17 -43 -2 -1 -36
-19 -75 -39 -83 -41 -100 -62 -105 -126 l-3 -45 269 -3 269 -2 -6 46 c-7 62
-32 93 -103 129 -89 45 -86 40 -58 93 37 72 41 131 14 187 -26 54 -61 75 -125
75 -37 0 -52 -6 -81 -32z m141 -43 c34 -33 34 -104 0 -171 -43 -85 -35 -102
76 -152 58 -27 79 -45 79 -70 0 -8 -410 -5 -418 3 -11 10 32 46 87 70 100 46
108 66 66 157 -47 101 -22 188 55 188 19 0 40 -9 55 -25z"/>
</g>
</svg>
