<?xml version="1.0" standalone="no"?>
<!DOCTYPE svg PUBLIC "-//W3C//DTD SVG 20010904//EN"
 "http://www.w3.org/TR/2001/REC-SVG-20010904/DTD/svg10.dtd">
<svg version="1.0" xmlns="http://www.w3.org/2000/svg"
 width="209.000000pt" height="199.000000pt" viewBox="0 0 209.000000 199.000000"
 preserveAspectRatio="xMidYMid meet">

<g transform="translate(0.000000,199.000000) scale(0.100000,-0.100000)"
fill="#000000" stroke="none">
<path d="M874 1600 c-114 -23 -236 -119 -286 -226 -58 -125 -60 -237 -5 -357
23 -50 24 -51 36 -29 10 19 9 31 -6 70 -13 33 -18 74 -18 137 0 77 4 98 27
147 37 79 98 142 177 181 60 29 74 32 161 32 83 0 102 -3 150 -27 88 -43 135
-90 177 -176 35 -70 38 -82 38 -161 -1 -76 -4 -94 -33 -152 -38 -79 -110 -150
-190 -187 -48 -22 -71 -27 -143 -27 -78 0 -91 3 -157 36 -66 33 -72 34 -78 17
-8 -26 8 -42 69 -69 105 -46 274 -36 373 23 l36 21 169 -169 169 -169 47 48
48 47 -168 168 -168 168 33 70 c31 64 33 76 33 174 0 132 -22 194 -100 278
-104 112 -246 160 -391 132z m551 -840 c142 -142 149 -151 132 -167 -16 -17
-25 -10 -169 134 -131 131 -150 154 -139 167 8 9 16 16 20 16 3 0 74 -67 156
-150z"/>
<path d="M1380 1528 c-44 -69 -47 -80 -26 -97 11 -9 23 3 61 65 38 61 45 78
34 85 -23 14 -27 11 -69 -53z"/>
<path d="M1011 1378 c-4 -13 -28 -78 -52 -145 -23 -68 -46 -123 -49 -123 -3 0
-23 45 -45 100 -22 54 -43 96 -47 92 -4 -4 -62 -127 -128 -272 -112 -244 -120
-266 -103 -277 21 -16 15 -28 134 235 51 111 95 202 98 202 3 0 24 -47 46
-105 22 -58 43 -105 47 -105 7 0 18 28 82 213 21 59 39 107 41 107 1 0 30 -43
64 -95 35 -52 66 -95 69 -95 4 1 29 37 55 81 41 68 47 84 39 107 -9 27 -9 26
-48 -35 -21 -35 -43 -63 -49 -63 -5 0 -39 45 -75 100 -35 55 -66 100 -67 100
-2 0 -7 -10 -12 -22z"/>
</g>
</svg>
