<?xml version="1.0" standalone="no"?>
<!DOCTYPE svg PUBLIC "-//W3C//DTD SVG 20010904//EN"
 "http://www.w3.org/TR/2001/REC-SVG-20010904/DTD/svg10.dtd">
<svg version="1.0" xmlns="http://www.w3.org/2000/svg"
 width="290.000000pt" height="163.000000pt" viewBox="0 0 290.000000 163.000000"
 preserveAspectRatio="xMidYMid meet">

<g transform="translate(0.000000,163.000000) scale(0.100000,-0.100000)"
fill="#000000" stroke="none">
<path d="M880 1195 c0 -20 5 -25 25 -25 l25 0 0 -420 0 -420 265 0 265 0 0
-44 0 -44 -106 -71 c-58 -39 -113 -71 -123 -71 -21 0 -51 -30 -51 -52 0 -20
32 -48 56 -48 25 0 44 18 44 42 0 11 33 40 90 78 l90 61 0 -41 c0 -22 -5 -49
-11 -59 -31 -49 29 -104 71 -66 24 21 25 43 5 69 -15 20 -21 96 -7 96 4 0 50
-27 102 -58 68 -42 96 -65 100 -82 8 -36 53 -49 80 -25 11 10 20 26 20 35 0
20 -31 50 -51 50 -8 0 -68 33 -134 73 l-120 72 -3 43 -3 42 270 0 271 0 0 420
0 420 25 0 c20 0 25 5 25 25 l0 25 -610 0 -610 0 0 -25z m1118 -417 l-3 -393
-507 -3 -508 -2 0 395 0 395 510 0 510 0 -2 -392z"/>
<path d="M1814 1014 c-21 -20 -25 -31 -20 -57 5 -29 -2 -42 -95 -149 -83 -97
-105 -118 -128 -118 -15 0 -32 -5 -39 -12 -10 -10 -24 0 -67 42 -30 30 -55 63
-55 73 0 30 -17 53 -49 66 -56 24 -114 -30 -98 -90 4 -16 -12 -42 -64 -106
-39 -46 -76 -83 -82 -82 -61 7 -103 -47 -81 -106 7 -18 55 -45 79 -45 9 0 27
11 41 25 19 19 24 34 23 63 -2 34 5 47 65 120 40 48 73 79 81 76 7 -3 23 0 35
6 20 11 28 7 76 -41 30 -29 54 -61 54 -70 0 -32 13 -51 44 -64 56 -24 107 13
104 75 -1 32 10 49 98 153 83 98 104 117 127 117 42 0 91 52 83 88 -15 62 -87
82 -132 36z m79 -38 c9 -22 -19 -42 -37 -26 -19 15 -10 40 14 40 10 0 20 -6
23 -14z m-536 -182 c8 -22 -18 -37 -36 -20 -7 8 -10 19 -7 25 10 16 36 13 43
-5z m229 -193 c-10 -16 -36 -13 -43 5 -8 22 18 37 36 20 7 -8 10 -19 7 -25z
m-456 -90 c0 -24 -25 -34 -40 -16 -15 18 -5 35 21 35 12 0 19 -7 19 -19z"/>
</g>
</svg>
