<?xml version="1.0" standalone="no"?>
<!DOCTYPE svg PUBLIC "-//W3C//DTD SVG 20010904//EN"
 "http://www.w3.org/TR/2001/REC-SVG-20010904/DTD/svg10.dtd">
<svg version="1.0" xmlns="http://www.w3.org/2000/svg"
 width="196.000000pt" height="241.000000pt" viewBox="0 0 196.000000 241.000000"
 preserveAspectRatio="xMidYMid meet">

<g transform="translate(0.000000,241.000000) scale(0.100000,-0.100000)"
fill="#000000" stroke="none">
<path d="M390 1260 l0 -540 540 0 540 0 0 25 0 25 -515 0 -515 0 0 55 c0 52 1
55 25 55 20 0 25 5 25 25 0 20 -5 25 -25 25 -24 0 -25 3 -25 54 0 49 2 55 23
58 16 2 23 11 25 33 3 27 21 41 149 123 l146 92 157 27 158 26 118 129 c66 70
124 128 130 128 6 0 19 -9 29 -20 10 -11 21 -20 26 -20 9 0 83 220 76 226 -5
5 -216 -63 -226 -72 -3 -2 8 -17 22 -32 15 -16 27 -32 27 -37 0 -8 -48 -63
-162 -182 l-69 -72 -152 -26 -152 -26 -162 -104 -163 -104 0 29 c0 25 4 30 25
30 20 0 25 5 25 25 0 20 -5 25 -25 25 -23 0 -25 3 -25 50 0 47 2 50 25 50 20
0 25 5 25 25 0 20 -5 25 -25 25 -24 0 -25 3 -25 55 0 52 1 55 25 55 20 0 25 5
25 25 0 20 -5 25 -25 25 -23 0 -25 3 -25 50 0 47 2 50 25 50 20 0 25 5 25 25
0 20 -5 25 -25 25 -23 0 -25 3 -25 50 0 47 -2 50 -25 50 l-25 0 0 -540z"/>
<path d="M1292 1477 l-52 -53 0 -302 0 -303 88 3 87 3 3 319 2 320 -32 33
c-17 18 -35 33 -38 33 -3 0 -29 -24 -58 -53z m78 -318 l0 -279 -40 0 -40 0 0
257 0 256 26 34 c21 27 29 32 40 22 11 -9 14 -62 14 -290z"/>
<path d="M1146 1321 c-21 -22 -40 -31 -82 -36 l-54 -6 0 -230 0 -230 88 3 87
3 3 263 c1 144 -1 262 -6 262 -5 0 -21 -13 -36 -29z m-13 -264 l2 -177 -37 0
-38 0 0 174 c0 184 1 187 48 183 23 -2 23 -2 25 -180z"/>
<path d="M841 1249 c-74 -14 -72 -8 -69 -228 l3 -196 88 -3 87 -3 0 221 0 220
-32 -1 c-18 -1 -53 -5 -77 -10z m59 -209 l0 -160 -37 0 -38 0 2 150 c1 83 5
155 8 160 3 6 19 10 36 10 l29 0 0 -160z"/>
<path d="M630 1132 l-85 -57 0 -125 0 -125 88 -3 87 -3 0 186 c0 102 -1 185
-2 184 -2 0 -41 -26 -88 -57z m40 -147 l0 -105 -40 0 -40 0 0 79 c0 78 1 80
33 105 17 14 35 26 40 26 4 0 7 -47 7 -105z"/>
</g>
</svg>
