<?xml version="1.0" standalone="no"?>
<!DOCTYPE svg PUBLIC "-//W3C//DTD SVG 20010904//EN"
 "http://www.w3.org/TR/2001/REC-SVG-20010904/DTD/svg10.dtd">
<svg version="1.0" xmlns="http://www.w3.org/2000/svg"
 width="176.000000pt" height="220.000000pt" viewBox="0 0 176.000000 220.000000"
 preserveAspectRatio="xMidYMid meet">

<g transform="translate(0.000000,220.000000) scale(0.100000,-0.100000)"
fill="#000000" stroke="none">
<path d="M733 1625 c-30 -30 -42 -35 -81 -35 -26 0 -60 -7 -76 -15 -19 -10
-58 -15 -122 -15 l-94 0 0 -540 0 -540 440 0 440 0 0 247 0 246 108 111 c226
233 224 227 134 318 -80 79 -105 79 -184 1 l-58 -57 0 107 0 107 -94 0 c-64 0
-103 5 -122 15 -16 8 -50 15 -75 15 -40 0 -52 5 -82 35 -25 25 -44 35 -67 35
-23 0 -42 -10 -67 -35z m99 -32 c10 -9 18 -24 18 -35 0 -16 9 -18 73 -18 43 0
78 -5 85 -12 7 -7 12 -36 12 -65 l0 -53 -220 0 -220 0 0 53 c0 29 5 58 12 65
7 7 42 12 85 12 62 0 73 3 73 17 0 21 29 53 48 53 9 0 24 -7 34 -17z m-302
-158 l0 -75 270 0 270 0 0 75 0 75 60 0 60 0 0 -110 0 -110 -35 -38 -34 -37
-1 28 0 27 -320 0 -320 0 0 -25 0 -25 315 0 c173 0 315 -3 315 -7 0 -4 -30
-38 -67 -75 l-67 -68 -248 0 -248 0 0 -25 0 -25 227 0 226 0 -23 -25 -23 -25
-204 0 -203 0 0 -25 0 -25 175 0 c96 0 175 -3 175 -6 0 -3 -5 -14 -10 -25 -10
-18 -23 -19 -175 -19 l-165 0 0 -25 0 -25 156 0 156 0 -14 -22 c-15 -22 -23
-23 -157 -26 -138 -2 -142 -3 -139 -24 3 -20 8 -20 125 -19 73 1 124 -2 127
-8 4 -6 -7 -38 -24 -72 -17 -33 -30 -63 -28 -64 2 -2 77 30 166 71 l163 74 89
93 89 92 1 -192 0 -193 -390 0 -390 0 0 490 0 490 60 0 60 0 0 -75z m918 -68
c23 -23 42 -48 42 -54 0 -5 -27 -39 -59 -74 l-60 -64 -58 57 -58 58 60 60 c33
33 66 60 75 60 9 0 35 -19 58 -43z m-216 -334 c-55 -59 -129 -136 -164 -171
l-64 -62 -54 55 -54 54 59 63 c32 35 106 112 164 171 l105 108 55 -55 54 -55
-101 -108z m-324 -296 l-63 -28 -17 21 c-16 20 -16 24 7 77 14 30 25 58 25 61
0 4 25 -18 55 -48 l56 -55 -63 -28z"/>
<path d="M780 1560 c0 -13 7 -20 20 -20 13 0 20 7 20 20 0 13 -7 20 -20 20
-13 0 -20 -7 -20 -20z"/>
<path d="M480 1145 l0 -25 235 0 235 0 0 25 0 25 -235 0 -235 0 0 -25z"/>
</g>
</svg>
