<svg width="119" height="113" viewBox="0 0 119 113" fill="none" xmlns="http://www.w3.org/2000/svg">
<path d="M40.208 35.3025L54.8893 5.83799C55.3167 4.98529 55.974 4.26808 56.7875 3.7668C57.6009 3.26553 58.5385 3 59.4949 3C60.4513 3 61.3889 3.26553 62.2024 3.7668C63.0158 4.26808 63.6731 4.98529 64.1005 5.83799L78.7818 35.3025L111.603 40.0555C112.55 40.1863 113.44 40.5798 114.173 41.1909C114.906 41.802 115.452 42.6063 115.749 43.5118C116.045 44.4173 116.08 45.3876 115.85 46.3119C115.619 47.2363 115.133 48.0775 114.445 48.7394L90.6998 71.66L96.3056 104.042C97.0233 108.198 92.6155 111.363 88.8463 109.403L59.4949 94.1075L30.1379 109.403C26.3743 111.368 21.9665 108.198 22.6842 104.036L28.29 71.6544L4.54447 48.7338C3.86062 48.0714 3.37696 47.2311 3.14847 46.3083C2.91997 45.3856 2.95581 44.4176 3.25191 43.5141C3.548 42.6107 4.09248 41.8082 4.82345 41.1978C5.55442 40.5874 6.44256 40.1936 7.38693 40.0612L40.208 35.3025Z" stroke="white" stroke-width="5" stroke-linecap="round" stroke-linejoin="round"/>
</svg>
