<svg width="124" height="124" viewBox="0 0 124 124" fill="none" xmlns="http://www.w3.org/2000/svg">
<mask id="path-1-inside-1_116_718" fill="white">
<path d="M77.4999 113.667L76.0687 115.816C76.4577 116.075 76.9097 116.223 77.3764 116.246C77.8432 116.268 78.3073 116.163 78.7192 115.943C79.1312 115.722 79.4756 115.394 79.7158 114.993C79.956 114.592 80.083 114.134 80.0832 113.667H77.4999ZM61.9999 103.333L63.431 101.184C63.0071 100.902 62.5091 100.751 61.9999 100.751C61.4906 100.751 60.9927 100.902 60.5687 101.184L61.9999 103.333ZM46.4999 113.667H43.9165C43.9168 114.134 44.0438 114.592 44.284 114.993C44.5242 115.394 44.8686 115.722 45.2805 115.943C45.6925 116.163 46.1566 116.268 46.6233 116.246C47.0901 116.223 47.542 116.075 47.931 115.816L46.4999 113.667ZM78.931 111.517L63.431 101.184L60.5687 105.483L76.0687 115.816L78.931 111.517ZM60.5687 101.184L45.0687 111.517L47.931 115.816L63.431 105.483L60.5687 101.184ZM67.9054 16.0889L68.1224 16.3472L72.0542 12.9992L71.8372 12.7409L67.9054 16.0889ZM78.993 20.8525L79.3289 20.8215L78.9155 15.6755L78.5797 15.7014L78.993 20.8525ZM87.673 29.1709L87.6524 29.5067L92.7984 29.92L92.8242 29.5842L87.673 29.1709ZM92.1525 40.3774L92.4109 40.5995L95.7589 36.6625L95.5005 36.4455L92.1525 40.3774ZM92.4109 52.4054L92.1525 52.6224L95.5005 56.5542L95.7589 56.3372L92.4109 52.4054ZM87.6524 63.493L87.6782 63.8289L92.8242 63.4155L92.7984 63.0797L87.6524 63.493ZM79.334 72.173L78.993 72.1472L78.5797 77.2984L78.9155 77.3242L79.334 72.173ZM68.1224 76.6525L67.9002 76.9109L71.8372 80.2589L72.0542 80.0005L68.1224 76.6525ZM56.0995 76.9109L55.8774 76.6525L51.9455 80.0005L52.1625 80.2589L56.0995 76.9109ZM45.0067 72.1524L44.6709 72.1782L45.0842 77.3242L45.42 77.2984L45.0067 72.1524ZM36.3267 63.834L36.3525 63.493L31.2014 63.0797L31.1755 63.4155L36.3267 63.834ZM31.8472 52.6224L31.5889 52.4002L28.2409 56.3372L28.4992 56.5542L31.8472 52.6224ZM31.5889 40.5995L31.8472 40.3774L28.4992 36.4455L28.2409 36.6625L31.5889 40.5995ZM36.3525 29.5067L36.3215 29.1709L31.1755 29.5842L31.2014 29.92L36.3525 29.5067ZM44.6709 20.8267L45.0067 20.8525L45.42 15.7014L45.0842 15.6755L44.6709 20.8267ZM55.8825 16.3472L56.0944 16.0889L52.1625 12.7409L51.9455 12.9992L55.8825 16.3472ZM45.0067 20.8525C47.0468 21.017 49.0968 20.6942 50.9877 19.9109C52.8786 19.1276 54.5563 17.9061 55.8825 16.3472L51.9455 12.9992C51.1497 13.9344 50.143 14.6671 49.0085 15.1369C47.874 15.6067 46.644 15.8002 45.42 15.7014L45.0067 20.8525ZM36.3215 29.1709C36.2312 28.0524 36.3901 26.9277 36.777 25.8744C37.164 24.8211 37.7751 23.8644 38.5681 23.0705C39.3611 22.2765 40.317 21.6643 41.3698 21.276C42.4226 20.8877 43.5471 20.7326 44.6657 20.8215L45.0842 15.6755C43.2197 15.5259 41.3398 15.783 39.5844 16.429C37.829 17.0751 36.2348 18.0947 34.9122 19.4173C33.5895 20.74 32.5699 22.3341 31.9239 24.0895C31.2778 25.8449 31.0259 27.7197 31.1755 29.5842L36.3215 29.1709ZM31.8472 40.3774C33.4061 39.0512 34.6276 37.3786 35.4109 35.4877C36.1942 33.5968 36.517 31.5468 36.3525 29.5067L31.2014 29.92C31.3002 31.144 31.1067 32.374 30.6369 33.5085C30.1671 34.643 29.4344 35.6497 28.4992 36.4455L31.8472 40.3774ZM31.5889 52.4002C30.7345 51.6727 30.0484 50.7682 29.5779 49.7495C29.1074 48.7308 28.8637 47.622 28.8637 46.4999C28.8637 45.3777 29.1074 44.269 29.5779 43.2502C30.0484 42.2315 30.7345 41.3271 31.5889 40.5995L28.2409 36.6625C26.8158 37.8751 25.6712 39.3829 24.8863 41.0814C24.1014 42.7799 23.6948 44.6287 23.6948 46.4999C23.6948 48.371 24.1014 50.2198 24.8863 51.9184C25.6712 53.6169 26.8158 55.1246 28.2409 56.3372L31.5889 52.4002ZM36.3525 63.493C36.5161 61.4538 36.193 59.4048 35.4097 57.5149C34.6264 55.6249 33.4054 53.9481 31.8472 52.6224L28.4992 56.5542C29.4344 57.35 30.1671 58.3567 30.6369 59.4912C31.1067 60.6258 31.3002 61.8557 31.2014 63.0797L36.3525 63.493ZM44.6709 72.173C43.5519 72.2634 42.4267 72.1097 41.373 71.7224C40.3194 71.3351 39.3624 70.7235 38.5684 69.93C37.7743 69.1364 37.1622 68.1799 36.7742 67.1264C36.3863 66.073 36.2318 64.9479 36.3215 63.8289L31.1755 63.4155C31.0251 65.2805 31.2816 67.1558 31.9273 68.9119C32.573 70.6679 33.5925 72.2627 34.9152 73.5859C36.238 74.9091 37.8324 75.9292 39.5882 76.5756C41.344 77.2219 43.2192 77.4791 45.0842 77.3294L44.6709 72.173ZM67.9002 76.9109C67.1726 77.7652 66.2682 78.4513 65.2495 78.9219C64.2308 79.3924 63.122 79.6361 61.9999 79.6361C60.8777 79.6361 59.769 79.3924 58.7502 78.9219C57.7315 78.4513 56.8271 77.7652 56.0995 76.9109L52.1625 80.2589C53.3751 81.6839 54.8829 82.8285 56.5814 83.6135C58.2799 84.3984 60.1287 84.8049 61.9999 84.8049C63.871 84.8049 65.7198 84.3984 67.4184 83.6135C69.1169 82.8285 70.6246 81.6839 71.8372 80.2589L67.9002 76.9109ZM87.6782 63.8289C87.7687 64.9483 87.6148 66.074 87.2273 67.1281C86.8397 68.1821 86.2276 69.1394 85.4335 69.9335C84.6394 70.7276 83.6821 71.3397 82.6281 71.7273C81.574 72.1148 80.4483 72.2687 79.3289 72.1782L78.9155 77.3242C80.7805 77.4746 82.6558 77.2182 84.4118 76.5724C86.1679 75.9268 87.7627 74.9073 89.0859 73.5845C90.4091 72.2618 91.4292 70.6674 92.0756 68.9116C92.7219 67.1558 92.974 65.2805 92.8242 63.4155L87.6782 63.8289ZM92.1525 52.6172C90.5945 53.944 89.3741 55.6219 88.5917 57.5128C87.8093 59.4036 87.4873 61.4534 87.6524 63.493L92.7984 63.0797C92.6996 61.8557 92.8931 60.6258 93.3629 59.4912C93.8327 58.3567 94.5654 57.35 95.5005 56.5542L92.1525 52.6172ZM92.4109 40.5995C93.2652 41.3271 93.9513 42.2315 94.4219 43.2502C94.8924 44.269 95.1361 45.3777 95.1361 46.4999C95.1361 47.622 94.8924 48.7308 94.4219 49.7495C93.9513 50.7682 93.2652 51.6778 92.4109 52.4054L95.7589 56.3372C97.1839 55.1246 98.3285 53.6169 99.1135 51.9184C99.8984 50.2198 100.305 48.371 100.305 46.4999C100.305 44.6287 99.8984 42.7799 99.1135 41.0814C98.3285 39.3829 97.1839 37.8751 95.7589 36.6625L92.4109 40.5995ZM87.6524 29.5067C87.4882 31.5456 87.8105 33.5943 88.5929 35.4842C89.3753 37.3741 90.5953 39.0512 92.1525 40.3774L95.5005 36.4455C94.5654 35.6497 93.8327 34.643 93.3629 33.5085C92.8931 32.374 92.6996 31.144 92.7984 29.92L87.6524 29.5067ZM79.334 20.8267C80.4526 20.7371 81.5772 20.8914 82.6303 21.2791C83.6833 21.6667 84.6396 22.2784 85.433 23.0719C86.2265 23.8653 86.8382 24.8216 87.2258 25.8747C87.6135 26.9277 87.7626 28.0523 87.673 29.1709L92.8242 29.5842C92.974 27.7192 92.7219 25.844 92.0756 24.0882C91.4292 22.3324 90.4091 20.738 89.0859 19.4152C87.7627 18.0925 86.1679 17.073 84.4118 16.4273C82.6558 15.7816 80.7805 15.5251 78.9155 15.6755L79.334 20.8267ZM68.1224 16.3472C69.4481 17.9054 71.1249 19.1264 73.0149 19.9097C74.9048 20.693 76.9538 21.0161 78.993 20.8525L78.5797 15.7014C77.3557 15.8002 76.1258 15.6067 74.9912 15.1369C73.8567 14.6671 72.85 13.9344 72.0542 12.9992L68.1224 16.3472ZM71.8372 12.7409C70.6246 11.3158 69.1169 10.1712 67.4184 9.38629C65.7198 8.60136 63.871 8.19482 61.9999 8.19482C60.1287 8.19482 58.2799 8.60136 56.5814 9.38629C54.8829 10.1712 53.3751 11.3158 52.1625 12.7409L56.0944 16.0889C56.8219 15.2346 57.7315 14.5484 58.7502 14.0779C59.769 13.6074 60.8777 13.3637 61.9999 13.3637C63.122 13.3637 64.2308 13.6074 65.2495 14.0779C66.2682 14.5484 67.1778 15.2346 67.9054 16.0889L71.8372 12.7409ZM55.8825 76.6525C54.7318 75.3009 53.3149 74.2009 51.7201 73.4213C50.1253 72.6417 48.387 72.194 46.6135 72.1162L46.3862 77.2829C47.4498 77.3297 48.4924 77.5952 49.4489 78.0628C50.4054 78.5303 51.2553 79.19 51.9455 80.0005L55.8825 76.6525ZM46.6135 72.1162C46.0778 72.097 45.5415 72.1108 45.0067 72.1472L45.42 77.2984C45.7438 77.2708 46.0659 77.2657 46.3862 77.2829L46.6135 72.1162ZM49.0832 113.667V74.6995H43.9165V113.667H49.0832ZM78.9982 72.1472C78.4617 72.1106 77.9236 72.102 77.3862 72.1214L77.6135 77.2829C77.9339 77.2657 78.2559 77.2708 78.5797 77.2984L78.9982 72.1472ZM77.3862 72.1214C75.6137 72.1999 73.8763 72.6427 72.2825 73.4223C70.6886 74.2019 69.2725 75.3015 68.1224 76.6525L72.0542 80.0005C72.7445 79.19 73.5944 78.5303 74.5509 78.0628C75.5073 77.5952 76.5499 77.3297 77.6135 77.2829L77.3862 72.1214ZM74.9165 74.7047V113.667H80.0832V74.6995L74.9165 74.7047Z"/>
</mask>
<path d="M77.4999 113.667L76.0687 115.816C76.4577 116.075 76.9097 116.223 77.3764 116.246C77.8432 116.268 78.3073 116.163 78.7192 115.943C79.1312 115.722 79.4756 115.394 79.7158 114.993C79.956 114.592 80.083 114.134 80.0832 113.667H77.4999ZM61.9999 103.333L63.431 101.184C63.0071 100.902 62.5091 100.751 61.9999 100.751C61.4906 100.751 60.9927 100.902 60.5687 101.184L61.9999 103.333ZM46.4999 113.667H43.9165C43.9168 114.134 44.0438 114.592 44.284 114.993C44.5242 115.394 44.8686 115.722 45.2805 115.943C45.6925 116.163 46.1566 116.268 46.6233 116.246C47.0901 116.223 47.542 116.075 47.931 115.816L46.4999 113.667ZM78.931 111.517L63.431 101.184L60.5687 105.483L76.0687 115.816L78.931 111.517ZM60.5687 101.184L45.0687 111.517L47.931 115.816L63.431 105.483L60.5687 101.184ZM67.9054 16.0889L68.1224 16.3472L72.0542 12.9992L71.8372 12.7409L67.9054 16.0889ZM78.993 20.8525L79.3289 20.8215L78.9155 15.6755L78.5797 15.7014L78.993 20.8525ZM87.673 29.1709L87.6524 29.5067L92.7984 29.92L92.8242 29.5842L87.673 29.1709ZM92.1525 40.3774L92.4109 40.5995L95.7589 36.6625L95.5005 36.4455L92.1525 40.3774ZM92.4109 52.4054L92.1525 52.6224L95.5005 56.5542L95.7589 56.3372L92.4109 52.4054ZM87.6524 63.493L87.6782 63.8289L92.8242 63.4155L92.7984 63.0797L87.6524 63.493ZM79.334 72.173L78.993 72.1472L78.5797 77.2984L78.9155 77.3242L79.334 72.173ZM68.1224 76.6525L67.9002 76.9109L71.8372 80.2589L72.0542 80.0005L68.1224 76.6525ZM56.0995 76.9109L55.8774 76.6525L51.9455 80.0005L52.1625 80.2589L56.0995 76.9109ZM45.0067 72.1524L44.6709 72.1782L45.0842 77.3242L45.42 77.2984L45.0067 72.1524ZM36.3267 63.834L36.3525 63.493L31.2014 63.0797L31.1755 63.4155L36.3267 63.834ZM31.8472 52.6224L31.5889 52.4002L28.2409 56.3372L28.4992 56.5542L31.8472 52.6224ZM31.5889 40.5995L31.8472 40.3774L28.4992 36.4455L28.2409 36.6625L31.5889 40.5995ZM36.3525 29.5067L36.3215 29.1709L31.1755 29.5842L31.2014 29.92L36.3525 29.5067ZM44.6709 20.8267L45.0067 20.8525L45.42 15.7014L45.0842 15.6755L44.6709 20.8267ZM55.8825 16.3472L56.0944 16.0889L52.1625 12.7409L51.9455 12.9992L55.8825 16.3472ZM45.0067 20.8525C47.0468 21.017 49.0968 20.6942 50.9877 19.9109C52.8786 19.1276 54.5563 17.9061 55.8825 16.3472L51.9455 12.9992C51.1497 13.9344 50.143 14.6671 49.0085 15.1369C47.874 15.6067 46.644 15.8002 45.42 15.7014L45.0067 20.8525ZM36.3215 29.1709C36.2312 28.0524 36.3901 26.9277 36.777 25.8744C37.164 24.8211 37.7751 23.8644 38.5681 23.0705C39.3611 22.2765 40.317 21.6643 41.3698 21.276C42.4226 20.8877 43.5471 20.7326 44.6657 20.8215L45.0842 15.6755C43.2197 15.5259 41.3398 15.783 39.5844 16.429C37.829 17.0751 36.2348 18.0947 34.9122 19.4173C33.5895 20.74 32.5699 22.3341 31.9239 24.0895C31.2778 25.8449 31.0259 27.7197 31.1755 29.5842L36.3215 29.1709ZM31.8472 40.3774C33.4061 39.0512 34.6276 37.3786 35.4109 35.4877C36.1942 33.5968 36.517 31.5468 36.3525 29.5067L31.2014 29.92C31.3002 31.144 31.1067 32.374 30.6369 33.5085C30.1671 34.643 29.4344 35.6497 28.4992 36.4455L31.8472 40.3774ZM31.5889 52.4002C30.7345 51.6727 30.0484 50.7682 29.5779 49.7495C29.1074 48.7308 28.8637 47.622 28.8637 46.4999C28.8637 45.3777 29.1074 44.269 29.5779 43.2502C30.0484 42.2315 30.7345 41.3271 31.5889 40.5995L28.2409 36.6625C26.8158 37.8751 25.6712 39.3829 24.8863 41.0814C24.1014 42.7799 23.6948 44.6287 23.6948 46.4999C23.6948 48.371 24.1014 50.2198 24.8863 51.9184C25.6712 53.6169 26.8158 55.1246 28.2409 56.3372L31.5889 52.4002ZM36.3525 63.493C36.5161 61.4538 36.193 59.4048 35.4097 57.5149C34.6264 55.6249 33.4054 53.9481 31.8472 52.6224L28.4992 56.5542C29.4344 57.35 30.1671 58.3567 30.6369 59.4912C31.1067 60.6258 31.3002 61.8557 31.2014 63.0797L36.3525 63.493ZM44.6709 72.173C43.5519 72.2634 42.4267 72.1097 41.373 71.7224C40.3194 71.3351 39.3624 70.7235 38.5684 69.93C37.7743 69.1364 37.1622 68.1799 36.7742 67.1264C36.3863 66.073 36.2318 64.9479 36.3215 63.8289L31.1755 63.4155C31.0251 65.2805 31.2816 67.1558 31.9273 68.9119C32.573 70.6679 33.5925 72.2627 34.9152 73.5859C36.238 74.9091 37.8324 75.9292 39.5882 76.5756C41.344 77.2219 43.2192 77.4791 45.0842 77.3294L44.6709 72.173ZM67.9002 76.9109C67.1726 77.7652 66.2682 78.4513 65.2495 78.9219C64.2308 79.3924 63.122 79.6361 61.9999 79.6361C60.8777 79.6361 59.769 79.3924 58.7502 78.9219C57.7315 78.4513 56.8271 77.7652 56.0995 76.9109L52.1625 80.2589C53.3751 81.6839 54.8829 82.8285 56.5814 83.6135C58.2799 84.3984 60.1287 84.8049 61.9999 84.8049C63.871 84.8049 65.7198 84.3984 67.4184 83.6135C69.1169 82.8285 70.6246 81.6839 71.8372 80.2589L67.9002 76.9109ZM87.6782 63.8289C87.7687 64.9483 87.6148 66.074 87.2273 67.1281C86.8397 68.1821 86.2276 69.1394 85.4335 69.9335C84.6394 70.7276 83.6821 71.3397 82.6281 71.7273C81.574 72.1148 80.4483 72.2687 79.3289 72.1782L78.9155 77.3242C80.7805 77.4746 82.6558 77.2182 84.4118 76.5724C86.1679 75.9268 87.7627 74.9073 89.0859 73.5845C90.4091 72.2618 91.4292 70.6674 92.0756 68.9116C92.7219 67.1558 92.974 65.2805 92.8242 63.4155L87.6782 63.8289ZM92.1525 52.6172C90.5945 53.944 89.3741 55.6219 88.5917 57.5128C87.8093 59.4036 87.4873 61.4534 87.6524 63.493L92.7984 63.0797C92.6996 61.8557 92.8931 60.6258 93.3629 59.4912C93.8327 58.3567 94.5654 57.35 95.5005 56.5542L92.1525 52.6172ZM92.4109 40.5995C93.2652 41.3271 93.9513 42.2315 94.4219 43.2502C94.8924 44.269 95.1361 45.3777 95.1361 46.4999C95.1361 47.622 94.8924 48.7308 94.4219 49.7495C93.9513 50.7682 93.2652 51.6778 92.4109 52.4054L95.7589 56.3372C97.1839 55.1246 98.3285 53.6169 99.1135 51.9184C99.8984 50.2198 100.305 48.371 100.305 46.4999C100.305 44.6287 99.8984 42.7799 99.1135 41.0814C98.3285 39.3829 97.1839 37.8751 95.7589 36.6625L92.4109 40.5995ZM87.6524 29.5067C87.4882 31.5456 87.8105 33.5943 88.5929 35.4842C89.3753 37.3741 90.5953 39.0512 92.1525 40.3774L95.5005 36.4455C94.5654 35.6497 93.8327 34.643 93.3629 33.5085C92.8931 32.374 92.6996 31.144 92.7984 29.92L87.6524 29.5067ZM79.334 20.8267C80.4526 20.7371 81.5772 20.8914 82.6303 21.2791C83.6833 21.6667 84.6396 22.2784 85.433 23.0719C86.2265 23.8653 86.8382 24.8216 87.2258 25.8747C87.6135 26.9277 87.7626 28.0523 87.673 29.1709L92.8242 29.5842C92.974 27.7192 92.7219 25.844 92.0756 24.0882C91.4292 22.3324 90.4091 20.738 89.0859 19.4152C87.7627 18.0925 86.1679 17.073 84.4118 16.4273C82.6558 15.7816 80.7805 15.5251 78.9155 15.6755L79.334 20.8267ZM68.1224 16.3472C69.4481 17.9054 71.1249 19.1264 73.0149 19.9097C74.9048 20.693 76.9538 21.0161 78.993 20.8525L78.5797 15.7014C77.3557 15.8002 76.1258 15.6067 74.9912 15.1369C73.8567 14.6671 72.85 13.9344 72.0542 12.9992L68.1224 16.3472ZM71.8372 12.7409C70.6246 11.3158 69.1169 10.1712 67.4184 9.38629C65.7198 8.60136 63.871 8.19482 61.9999 8.19482C60.1287 8.19482 58.2799 8.60136 56.5814 9.38629C54.8829 10.1712 53.3751 11.3158 52.1625 12.7409L56.0944 16.0889C56.8219 15.2346 57.7315 14.5484 58.7502 14.0779C59.769 13.6074 60.8777 13.3637 61.9999 13.3637C63.122 13.3637 64.2308 13.6074 65.2495 14.0779C66.2682 14.5484 67.1778 15.2346 67.9054 16.0889L71.8372 12.7409ZM55.8825 76.6525C54.7318 75.3009 53.3149 74.2009 51.7201 73.4213C50.1253 72.6417 48.387 72.194 46.6135 72.1162L46.3862 77.2829C47.4498 77.3297 48.4924 77.5952 49.4489 78.0628C50.4054 78.5303 51.2553 79.19 51.9455 80.0005L55.8825 76.6525ZM46.6135 72.1162C46.0778 72.097 45.5415 72.1108 45.0067 72.1472L45.42 77.2984C45.7438 77.2708 46.0659 77.2657 46.3862 77.2829L46.6135 72.1162ZM49.0832 113.667V74.6995H43.9165V113.667H49.0832ZM78.9982 72.1472C78.4617 72.1106 77.9236 72.102 77.3862 72.1214L77.6135 77.2829C77.9339 77.2657 78.2559 77.2708 78.5797 77.2984L78.9982 72.1472ZM77.3862 72.1214C75.6137 72.1999 73.8763 72.6427 72.2825 73.4223C70.6886 74.2019 69.2725 75.3015 68.1224 76.6525L72.0542 80.0005C72.7445 79.19 73.5944 78.5303 74.5509 78.0628C75.5073 77.5952 76.5499 77.3297 77.6135 77.2829L77.3862 72.1214ZM74.9165 74.7047V113.667H80.0832V74.6995L74.9165 74.7047Z" fill="white"/>
<path d="M31.8472 40.3774L31.4667 40.7018L32.2279 40.0532L31.8472 40.3774ZM36.3525 29.5067L36.3925 30.0051L36.3126 29.0083L36.3525 29.5067ZM31.2014 63.0797L31.2414 62.5813L31.1613 63.5781L31.2014 63.0797ZM31.8472 52.6224L32.2279 52.9465L31.4667 52.298L31.8472 52.6224ZM68.1224 76.6525L68.4465 76.2719L67.798 77.033L68.1224 76.6525ZM92.4109 52.4054L92.7913 52.081L92.0302 52.7295L92.4109 52.4054ZM92.1525 40.3774L91.7719 40.0532L92.533 40.7018L92.1525 40.3774ZM92.8242 29.5842L92.7842 30.0826L92.8642 29.0858L92.8242 29.5842ZM72.0542 12.9992L72.3784 13.3799L71.7303 12.6183L72.0542 12.9992ZM78.993 20.8525L78.4946 20.8925L79.4914 20.8126L78.993 20.8525ZM67.9054 16.0889L67.581 15.7084L68.2295 16.4696L67.9054 16.0889ZM56.0944 16.0889L55.7702 16.4696L56.4188 15.7084L56.0944 16.0889ZM44.7098 18.2344L44.5031 20.8126L45.4999 20.8925L45.7066 18.3143L44.7098 18.2344ZM54.238 14.2923L52.2695 12.6183L51.6216 13.3801L53.5901 15.0541L54.238 14.2923ZM33.7085 28.8791L31.1355 29.0858L31.2156 30.0826L33.7886 29.8759L33.7085 28.8791ZM45.3759 18.2886L45.5826 15.7156L44.5858 15.6355L44.3791 18.2085L45.3759 18.2886ZM29.7927 38.7385L31.4667 40.7018L32.2277 40.053L30.5537 38.0896L29.7927 38.7385ZM33.8143 30.2118L36.3925 30.0051L36.3126 29.0083L33.7344 29.215L33.8143 30.2118ZM29.534 54.0448L27.86 56.0133L28.6218 56.6611L30.2958 54.6926L29.534 54.0448ZM30.2958 38.3071L28.6218 36.3386L27.86 36.9865L29.534 38.955L30.2958 38.3071ZM33.8144 62.788L31.2414 62.5813L31.1613 63.5781L33.7343 63.7848L33.8144 62.788ZM30.5537 54.9101L32.2277 52.9468L31.4667 52.298L29.7927 54.2613L30.5537 54.9101ZM44.3791 74.7912L44.5858 77.3642L45.5826 77.2842L45.3759 74.7112L44.3791 74.7912ZM33.7085 64.1206L36.2815 64.3273L36.3616 63.3305L33.7886 63.1238L33.7085 64.1206ZM54.2384 78.707L56.2018 77.033L55.553 76.2721L53.5896 77.9461L54.2384 78.707ZM45.7118 74.6853L45.5051 72.1123L44.5083 72.1924L44.715 74.7654L45.7118 74.6853ZM69.5448 78.9658L71.5133 80.6398L72.1611 79.878L70.1926 78.204L69.5448 78.9658ZM53.8071 78.204L51.8386 79.878L52.4865 80.6398L54.455 78.9658L53.8071 78.204ZM79.2848 74.7654L79.4914 72.1924L78.4946 72.1123L78.288 74.6853L79.2848 74.7654ZM70.4101 77.9461L68.4468 76.2721L67.798 77.033L69.7613 78.707L70.4101 77.9461ZM90.2912 64.1206L92.8642 63.9139L92.7842 62.9171L90.2112 63.1238L90.2912 64.1206ZM78.6238 74.7112L78.4171 77.2842L79.4139 77.3642L79.6206 74.7912L78.6238 74.7112ZM93.4456 54.9096L95.1196 56.8781L95.8814 56.2303L94.2074 54.2618L93.4456 54.9096ZM90.1853 62.788L87.6123 62.9946L87.6924 63.9914L90.2654 63.7848L90.1853 62.788ZM94.4658 38.955L96.1398 36.9865L95.378 36.3386L93.704 38.3071L94.4658 38.955ZM94.4653 54.0443L92.7913 52.081L92.0304 52.7298L93.7044 54.6931L94.4653 54.0443ZM90.2654 29.215L87.6924 29.0083L87.6123 30.0051L90.1853 30.2118L90.2654 29.215ZM93.4461 38.0896L91.7721 40.053L92.533 40.7018L94.207 38.7385L93.4461 38.0896ZM79.6206 18.2085L79.4139 15.6355L78.4171 15.7156L78.6238 18.2886L79.6206 18.2085ZM90.2112 29.8759L92.7842 30.0826L92.8642 29.0858L90.2912 28.8791L90.2112 29.8759ZM70.4096 15.0541L72.3781 13.3801L71.7303 12.6183L69.7618 14.2923L70.4096 15.0541ZM78.288 18.3143L78.4946 20.8925L79.4914 20.8126L79.2848 18.2344L78.288 18.3143ZM69.5443 14.0344L67.581 15.7084L68.2298 16.4694L70.1931 14.7954L69.5443 14.0344ZM53.8066 14.7954L55.77 16.4694L56.4188 15.7084L54.4554 14.0344L53.8066 14.7954ZM46.9994 74.7215L47.1131 72.1382L46.114 72.0942L46.0004 74.6776L46.9994 74.7215ZM68.4465 16.7279L72.3784 13.3799L71.73 12.6185L67.7982 15.9665L68.4465 16.7279ZM71.5131 12.3602L67.5812 15.7082L68.2295 16.4696L72.1614 13.1216L71.5131 12.3602ZM78.0813 15.7414L78.4946 20.8925L79.4914 20.8126L79.0781 15.6614L78.0813 15.7414ZM87.6123 30.0051L92.7583 30.4184L92.8384 29.4216L87.6924 29.0083L87.6123 30.0051ZM92.8642 29.0858L87.713 28.6725L87.633 29.6693L92.7842 30.0826L92.8642 29.0858ZM92.7918 40.9235L96.1398 36.9865L95.378 36.3386L92.03 40.2756L92.7918 40.9235ZM95.1198 36.1214L91.7719 40.0532L92.5332 40.7015L95.8812 36.7697L95.1198 36.1214ZM96.1396 56.0131L92.7915 52.0812L92.0302 52.7295L95.3782 56.6614L96.1396 56.0131ZM87.7182 64.3273L92.8642 63.9139L92.7842 62.9171L87.6382 63.3305L87.7182 64.3273ZM92.7583 62.5813L87.6123 62.9946L87.6924 63.9914L92.8384 63.5781L92.7583 62.5813ZM67.5763 77.2918L71.5133 80.6398L72.1611 79.878L68.2241 76.53L67.5763 77.2918ZM72.3784 79.6199L68.4465 76.2719L67.7982 77.0332L71.73 80.3812L72.3784 79.6199ZM52.4865 80.6398L56.4235 77.2918L55.7756 76.53L51.8386 79.878L52.4865 80.6398ZM36.3925 62.9946L31.2414 62.5813L31.1614 63.5781L36.3125 63.9914L36.3925 62.9946ZM31.208 52.0763L27.86 56.0133L28.6218 56.6611L31.9698 52.7241L31.208 52.0763ZM28.8799 56.8784L32.2279 52.9465L31.4665 52.2982L28.1185 56.2301L28.8799 56.8784ZM32.2279 40.0532L28.8799 36.1214L28.1185 36.7697L31.4665 40.7015L32.2279 40.0532ZM27.86 36.9865L31.208 40.9235L31.9698 40.2756L28.6218 36.3386L27.86 36.9865ZM36.2815 28.6725L31.1355 29.0858L31.2156 30.0826L36.3616 29.6693L36.2815 28.6725ZM31.2414 30.4184L36.3925 30.0051L36.3125 29.0083L31.1614 29.4216L31.2414 30.4184ZM45.5051 20.8925L45.9184 15.7414L44.9216 15.6614L44.5083 20.8126L45.5051 20.8925ZM56.4185 15.7082L52.4867 12.3602L51.8384 13.1216L55.7702 16.4696L56.4185 15.7082ZM51.6216 13.3801L55.5586 16.7281L56.2065 15.9663L52.2695 12.6183L51.6216 13.3801ZM46.114 72.0942L45.8867 77.2609L46.8857 77.3049L47.1131 72.1382L46.114 72.0942ZM76.8867 72.1434L77.114 77.3049L78.1131 77.2609L77.8857 72.0994L76.8867 72.1434ZM77.4999 113.667V112.667H76.9643L76.6675 113.112L77.4999 113.667ZM76.0687 115.816L75.514 116.648L75.5147 116.648L76.0687 115.816ZM80.0832 113.667L81.0832 113.667V113.667H80.0832ZM61.9999 103.333L61.1675 103.887L61.9999 105.137L62.8322 103.887L61.9999 103.333ZM63.431 101.184L63.9857 100.352L63.985 100.351L63.431 101.184ZM60.5687 101.184L60.0147 100.351L60.014 100.352L60.5687 101.184ZM46.4999 113.667L47.3322 113.112L47.0354 112.667H46.4999V113.667ZM43.9165 113.667H42.9165V113.667L43.9165 113.667ZM47.931 115.816L48.485 116.648L48.4857 116.648L47.931 115.816ZM51.9455 12.9992L52.7071 13.6473L52.7112 13.6424L51.9455 12.9992ZM31.1755 29.5842L32.1726 29.5075L32.1723 29.5042L31.1755 29.5842ZM31.8472 40.3774L31.1992 39.6157L31.1952 39.6192L31.8472 40.3774ZM36.3525 29.5067L37.3494 29.4264L37.3483 29.4148L36.3525 29.5067ZM28.2409 56.3372L27.5928 57.0988L27.5977 57.1029L28.2409 56.3372ZM28.2409 36.6625L27.5977 35.8968L27.5928 35.9009L28.2409 36.6625ZM31.2014 63.0797L30.2046 62.9993L30.2043 63.003L31.2014 63.0797ZM31.8472 52.6224L31.1952 53.3806L31.1992 53.384L31.8472 52.6224ZM45.0842 77.3242L44.0874 77.4043L44.1672 78.3977L45.1609 78.3213L45.0842 77.3242ZM36.3215 63.8289L37.3183 63.9088L37.3982 62.9121L36.4016 62.8321L36.3215 63.8289ZM55.8774 76.6525L56.6356 76.0005L55.9867 75.246L55.2291 75.8912L55.8774 76.6525ZM45.0067 72.1524L46.0035 72.0723L45.9237 71.0789L44.93 71.1553L45.0067 72.1524ZM71.8372 80.2589L72.5988 80.9069L72.6029 80.9021L71.8372 80.2589ZM52.1625 80.2589L51.3968 80.9021L51.4009 80.9069L52.1625 80.2589ZM68.1224 76.6525L68.8806 77.3046L68.8838 77.3008L68.1224 76.6525ZM92.8242 63.4155L91.8271 63.4922L91.8274 63.4956L92.8242 63.4155ZM87.6524 63.493L88.6494 63.4164L88.6491 63.4124L87.6524 63.493ZM95.7589 36.6625L96.4069 35.9009L96.4021 35.8968L95.7589 36.6625ZM92.4109 52.4054L93.0541 53.1711L93.0592 53.1667L92.4109 52.4054ZM87.6524 29.5067L88.6491 29.587L88.6499 29.5776L88.6505 29.5681L87.6524 29.5067ZM92.1525 40.3774L92.8046 39.6192L92.8009 39.6161L92.1525 40.3774ZM92.8242 29.5842L91.8274 29.5042L91.8271 29.5075L92.8242 29.5842ZM72.0542 12.9992L71.2885 13.6424L71.2926 13.6473L72.0542 12.9992ZM78.993 20.8525L79.073 21.8494L79.0849 21.8483L78.993 20.8525ZM67.9054 16.0889L68.6711 15.4457L68.6667 15.4405L67.9054 16.0889ZM56.0944 16.0889L55.333 15.4405L55.327 15.4476L55.3211 15.4548L56.0944 16.0889ZM46.6135 72.1162L46.6574 71.1171L46.6493 71.1169L46.6135 72.1162ZM78.931 111.517L79.7634 112.071L80.3173 111.24L79.4857 110.685L78.931 111.517ZM60.5687 105.483L59.7363 104.928L59.1824 105.76L60.014 106.315L60.5687 105.483ZM45.0687 111.517L44.514 110.685L43.6824 111.24L44.2363 112.071L45.0687 111.517ZM63.431 105.483L63.9857 106.315L64.8173 105.76L64.2634 104.928L63.431 105.483ZM68.1224 16.3472L67.3567 16.9904L67.3607 16.9952L68.1224 16.3472ZM71.8372 12.7409L72.6029 12.0977L72.5988 12.0928L71.8372 12.7409ZM79.3289 20.8215L79.4208 21.8173L80.4048 21.7265L80.3257 20.7415L79.3289 20.8215ZM78.5797 15.7014L78.503 14.7043L78.4993 14.7046L78.5797 15.7014ZM87.673 29.1709L86.6762 29.091L86.6755 29.1002L86.6749 29.1095L87.673 29.1709ZM92.7984 29.92L93.7951 30.0005L93.7954 29.9967L92.7984 29.92ZM92.4109 40.5995L91.7588 41.3577L91.7625 41.3609L92.4109 40.5995ZM95.5005 36.4455L94.8524 37.2071L94.8573 37.2112L95.5005 36.4455ZM92.1525 52.6224L91.5093 51.8567L90.7385 52.5042L91.3912 53.2707L92.1525 52.6224ZM95.7589 56.3372L96.4021 57.1029L96.4069 57.0988L95.7589 56.3372ZM87.6782 63.8289L86.6811 63.9056L86.6815 63.9095L87.6782 63.8289ZM92.7984 63.0797L93.7954 63.003L93.7951 62.9993L92.7984 63.0797ZM79.334 72.173L80.3307 72.254L80.4122 71.2519L79.4096 71.1759L79.334 72.173ZM78.993 72.1472L79.0686 71.1501L78.0759 71.0749L77.9962 72.0672L78.993 72.1472ZM78.5797 77.2984L78.4949 78.2948L78.503 78.2954L78.5797 77.2984ZM67.9002 76.9109L67.142 76.2588L67.1389 76.2625L67.9002 76.9109ZM72.0542 80.0005L71.2929 79.3522L71.2885 79.3574L72.0542 80.0005ZM56.0995 76.9109L56.8609 76.2625L56.8577 76.2588L56.0995 76.9109ZM44.6709 72.1782L44.5942 71.1812L43.5938 71.2581L43.6741 72.2583L44.6709 72.1782ZM45.42 77.2984L45.4967 78.2955L45.5048 78.2948L45.42 77.2984ZM36.3267 63.834L36.2457 64.8308L37.2479 64.9122L37.3239 63.9096L36.3267 63.834ZM36.3525 63.493L35.3557 63.4131L35.3554 63.4175L36.3525 63.493ZM31.5889 52.4002L32.2409 51.642L32.2372 51.6389L31.5889 52.4002ZM28.4992 56.5542L29.1473 55.7926L29.1424 55.7885L28.4992 56.5542ZM31.5889 40.5995L32.2372 41.3609L32.2409 41.3577L31.5889 40.5995ZM28.4992 36.4455L29.1424 37.2113L29.1473 37.2071L28.4992 36.4455ZM36.3215 29.1709L35.3247 29.2514L35.3258 29.2628L36.3215 29.1709ZM31.2014 29.92L30.2043 29.9967L30.2046 30.0005L31.2014 29.92ZM44.6709 20.8267L43.6741 20.7467L43.5938 21.7468L44.5942 21.8238L44.6709 20.8267ZM45.0067 20.8525L45.087 19.8558L45.0834 19.8555L45.0067 20.8525ZM45.42 15.7014L45.5005 14.7046L45.4967 14.7043L45.42 15.7014ZM55.8825 16.3472L56.6442 16.9952L56.6501 16.9883L56.6558 16.9813L55.8825 16.3472ZM52.1625 12.7409L51.4009 12.0928L51.3968 12.0977L52.1625 12.7409ZM44.6657 20.8215L44.5865 21.8184L45.5815 21.8975L45.6624 20.9026L44.6657 20.8215ZM28.8637 46.4999H27.8637H28.8637ZM44.6709 72.173L45.6677 72.0931L45.5877 71.0957L44.5903 71.1763L44.6709 72.173ZM45.0842 77.3294L45.1642 78.3262L46.1609 78.2461L46.081 77.2495L45.0842 77.3294ZM79.3289 72.1782L79.4095 71.1815L78.4122 71.1008L78.3321 72.0981L79.3289 72.1782ZM92.1525 52.6172L92.9143 51.9694L92.2661 51.2071L91.5042 51.8559L92.1525 52.6172ZM79.334 20.8267L78.3373 20.9077L78.4182 21.9033L79.4139 21.8235L79.334 20.8267ZM61.9999 8.19482V7.19482V8.19482ZM61.9999 13.3637V14.3637V13.3637ZM55.8825 76.6525L56.5304 77.4143L57.2926 76.7662L56.644 76.0043L55.8825 76.6525ZM46.3862 77.2829L46.3325 78.2815L46.3422 78.2819L46.3862 77.2829ZM45.0067 72.1472L44.9388 71.1495L43.929 71.2182L44.0099 72.2272L45.0067 72.1472ZM49.0832 113.667V114.667H50.0832V113.667H49.0832ZM49.0832 74.6995H50.0832V73.6995H49.0832V74.6995ZM43.9165 74.6995V73.6995H42.9165V74.6995H43.9165ZM78.9982 72.1472L79.9949 72.2282L80.077 71.2184L79.0662 71.1495L78.9982 72.1472ZM77.3862 72.1214L77.3502 71.122L77.3419 71.1224L77.3862 72.1214ZM77.6135 77.2829L77.6575 78.282L77.6672 78.2814L77.6135 77.2829ZM74.9165 74.7047L74.9155 73.7047L73.9165 73.7057V74.7047H74.9165ZM74.9165 113.667H73.9165V114.667H74.9165V113.667ZM80.0832 74.6995H81.0832V73.6985L80.0822 73.6995L80.0832 74.6995ZM76.6675 113.112L75.2363 115.262L76.9011 116.37L78.3322 114.221L76.6675 113.112ZM75.5147 116.648C76.0543 117.007 76.6812 117.213 77.3286 117.244L77.4242 115.247C77.1381 115.233 76.8611 115.142 76.6227 114.983L75.5147 116.648ZM77.3286 117.244C77.9761 117.275 78.6198 117.13 79.1912 116.824L78.2472 115.061C77.9947 115.196 77.7103 115.26 77.4242 115.247L77.3286 117.244ZM79.1912 116.824C79.7626 116.518 80.2404 116.063 80.5736 115.507L78.858 114.479C78.7108 114.725 78.4997 114.926 78.2472 115.061L79.1912 116.824ZM80.5736 115.507C80.9067 114.951 81.0829 114.315 81.0832 113.667L79.0832 113.666C79.0831 113.952 79.0052 114.233 78.858 114.479L80.5736 115.507ZM80.0832 112.667H77.4999V114.667H80.0832V112.667ZM62.8322 103.887L64.2634 101.738L62.5987 100.63L61.1675 102.779L62.8322 103.887ZM63.985 100.351C63.3969 99.96 62.7063 99.7512 61.9999 99.7512V101.751C62.312 101.751 62.6172 101.843 62.877 102.016L63.985 100.351ZM61.9999 99.7512C61.2935 99.7512 60.6028 99.96 60.0147 100.351L61.1227 102.016C61.3826 101.843 61.6877 101.751 61.9999 101.751V99.7512ZM59.7363 101.738L61.1675 103.887L62.8322 102.779L61.4011 100.63L59.7363 101.738ZM46.4999 112.667H43.9165V114.667H46.4999V112.667ZM42.9165 113.667C42.9169 114.315 43.093 114.951 43.4262 115.507L45.1417 114.479C44.9945 114.233 44.9167 113.952 44.9165 113.666L42.9165 113.667ZM43.4262 115.507C43.7594 116.063 44.2371 116.518 44.8085 116.824L45.7525 115.061C45.5 114.926 45.2889 114.725 45.1417 114.479L43.4262 115.507ZM44.8085 116.824C45.38 117.13 46.0237 117.275 46.6711 117.244L46.5755 115.247C46.2895 115.26 46.005 115.196 45.7525 115.061L44.8085 116.824ZM46.6711 117.244C47.3185 117.213 47.9454 117.007 48.485 116.648L47.377 114.983C47.1386 115.142 46.8616 115.233 46.5755 115.247L46.6711 117.244ZM48.7634 115.262L47.3322 113.112L45.6675 114.221L47.0987 116.37L48.7634 115.262ZM79.4857 110.685L63.9857 100.352L62.8763 102.016L78.3763 112.349L79.4857 110.685ZM62.5987 100.63L59.7363 104.928L61.4011 106.037L64.2634 101.738L62.5987 100.63ZM60.014 106.315L75.514 116.648L76.6234 114.984L61.1234 104.65L60.014 106.315ZM76.9011 116.37L79.7634 112.071L78.0987 110.963L75.2363 115.262L76.9011 116.37ZM60.014 100.352L44.514 110.685L45.6234 112.349L61.1234 102.016L60.014 100.352ZM44.2363 112.071L47.0987 116.37L48.7634 115.262L45.9011 110.963L44.2363 112.071ZM48.4857 116.648L63.9857 106.315L62.8763 104.65L47.3763 114.984L48.4857 116.648ZM64.2634 104.928L61.4011 100.63L59.7363 101.738L62.5987 106.037L64.2634 104.928ZM67.1397 16.7321L67.3567 16.9904L68.8881 15.704L68.6711 15.4457L67.1397 16.7321ZM72.8199 12.356L72.6029 12.0977L71.0715 13.3841L71.2885 13.6424L72.8199 12.356ZM79.0849 21.8483L79.4208 21.8173L79.237 19.8258L78.9011 19.8568L79.0849 21.8483ZM80.3257 20.7415L79.9123 15.5955L77.9187 15.7556L78.3321 20.9016L80.3257 20.7415ZM78.8388 14.6785L78.503 14.7043L78.6564 16.6984L78.9922 16.6726L78.8388 14.6785ZM86.6749 29.1095L86.6543 29.4453L88.6505 29.5681L88.6712 29.2323L86.6749 29.1095ZM93.7954 29.9967L93.8213 29.6609L91.8271 29.5075L91.8013 29.8434L93.7954 29.9967ZM91.5005 41.1356L91.7588 41.3577L93.0629 39.8414L92.8046 39.6192L91.5005 41.1356ZM96.4021 35.8968L96.1437 35.6798L94.8573 37.2112L95.1157 37.4283L96.4021 35.8968ZM91.7677 51.6397L91.5093 51.8567L92.7957 53.3881L93.0541 53.1711L91.7677 51.6397ZM91.3912 53.2707L94.7392 57.2025L96.2619 55.9059L92.9139 51.9741L91.3912 53.2707ZM96.1437 57.3199L96.4021 57.1029L95.1157 55.5715L94.8574 55.7885L96.1437 57.3199ZM86.6553 63.5697L86.6811 63.9056L88.6753 63.7522L88.6494 63.4164L86.6553 63.5697ZM93.8213 63.3389L93.7954 63.003L91.8013 63.1564L91.8271 63.4922L93.8213 63.3389ZM79.4096 71.1759L79.0686 71.1501L78.9175 73.1443L79.2585 73.1702L79.4096 71.1759ZM77.9962 72.0672L77.5829 77.2184L79.5765 77.3784L79.9898 72.2272L77.9962 72.0672ZM78.503 78.2954L78.8389 78.3213L78.9922 76.3271L78.6564 76.3013L78.503 78.2954ZM79.9123 77.4052L80.3307 72.254L78.3373 72.0921L77.9188 77.2432L79.9123 77.4052ZM67.3642 76.0005L67.142 76.2588L68.6584 77.5629L68.8806 77.3046L67.3642 76.0005ZM72.6029 80.9021L72.8199 80.6437L71.2885 79.3574L71.0715 79.6157L72.6029 80.9021ZM56.8577 76.2588L56.6356 76.0005L55.1192 77.3046L55.3414 77.5629L56.8577 76.2588ZM55.2291 75.8912L51.2972 79.2392L52.5939 80.7619L56.5257 77.4139L55.2291 75.8912ZM51.1798 80.6437L51.3968 80.9021L52.9282 79.6157L52.7112 79.3574L51.1798 80.6437ZM44.93 71.1553L44.5942 71.1812L44.7476 73.1753L45.0834 73.1494L44.93 71.1553ZM43.6741 72.2583L44.0874 77.4043L46.081 77.2441L45.6677 72.0981L43.6741 72.2583ZM45.1609 78.3213L45.4967 78.2954L45.3434 76.3013L45.0075 76.3271L45.1609 78.3213ZM46.4168 77.2183L46.0035 72.0723L44.0099 72.2324L44.4233 77.3784L46.4168 77.2183ZM37.3239 63.9096L37.3497 63.5686L35.3554 63.4175L35.3296 63.7585L37.3239 63.9096ZM30.2043 63.003L30.1785 63.3388L32.1726 63.4922L32.1984 63.1564L30.2043 63.003ZM31.0946 64.4123L36.2457 64.8308L36.4077 62.8373L31.2565 62.4188L31.0946 64.4123ZM32.4992 51.8642L32.2409 51.642L30.9368 53.1584L31.1952 53.3806L32.4992 51.8642ZM27.5977 57.1029L27.856 57.3199L29.1424 55.7885L28.8841 55.5715L27.5977 57.1029ZM32.2409 41.3577L32.4992 41.1356L31.1952 39.6192L30.9368 39.8414L32.2409 41.3577ZM27.856 35.6798L27.5977 35.8969L28.8841 37.4282L29.1424 37.2112L27.856 35.6798ZM37.3483 29.4148L37.3173 29.079L35.3258 29.2628L35.3568 29.5986L37.3483 29.4148ZM30.1785 29.6609L30.2043 29.9967L32.1984 29.8433L32.1726 29.5075L30.1785 29.6609ZM44.5942 21.8238L44.93 21.8496L45.0834 19.8555L44.7476 19.8297L44.5942 21.8238ZM45.4967 14.7043L45.1609 14.6785L45.0075 16.6726L45.3433 16.6984L45.4967 14.7043ZM44.0874 15.5956L43.6741 20.7467L45.6677 20.9067L46.081 15.7555L44.0874 15.5956ZM56.6558 16.9813L56.8676 16.723L55.3211 15.4548L55.1093 15.7131L56.6558 16.9813ZM51.3968 12.0977L51.1798 12.356L52.7112 13.6424L52.9282 13.3841L51.3968 12.0977ZM44.9264 21.8493C47.1244 22.0265 49.3331 21.6787 51.3704 20.8348L50.605 18.987C48.8605 19.7097 46.9692 20.0075 45.087 19.8558L44.9264 21.8493ZM51.3704 20.8348C53.4077 19.9908 55.2153 18.6748 56.6442 16.9952L55.1209 15.6992C53.8973 17.1375 52.3495 18.2644 50.605 18.987L51.3704 20.8348ZM51.184 12.3511C50.4908 13.1656 49.6141 13.8038 48.6259 14.2129L49.3911 16.0608C50.672 15.5304 51.8086 14.7031 52.7071 13.6473L51.184 12.3511ZM48.6259 14.2129C47.6378 14.6221 46.5665 14.7906 45.5005 14.7046L45.3396 16.6981C46.7215 16.8097 48.1102 16.5912 49.3911 16.0608L48.6259 14.2129ZM37.3183 29.0904C37.2399 28.1193 37.3776 27.1396 37.7157 26.2193L35.8384 25.5295C35.4026 26.7157 35.2226 27.9855 35.3248 29.2514L37.3183 29.0904ZM37.7157 26.2193C38.0528 25.3019 38.585 24.4687 39.2756 23.7772L37.8606 22.3638C36.9653 23.2602 36.2753 24.3403 35.8384 25.5295L37.7157 26.2193ZM39.2756 23.7772C39.9663 23.0857 40.7989 22.5524 41.7158 22.2142L41.0237 20.3377C39.8351 20.7761 38.7558 21.4674 37.8606 22.3638L39.2756 23.7772ZM41.7158 22.2142C42.6328 21.876 43.6122 21.741 44.5865 21.8184L44.745 19.8247C43.482 19.7243 42.2124 19.8993 41.0237 20.3377L41.7158 22.2142ZM45.6624 20.9026L46.0809 15.7566L44.0875 15.5945L43.669 20.7405L45.6624 20.9026ZM45.1642 14.6788C43.1556 14.5175 41.1305 14.7944 39.239 15.4906L39.9297 17.3675C41.549 16.7715 43.2838 16.5343 45.0042 16.6723L45.1642 14.6788ZM39.239 15.4906C37.3477 16.1866 35.6301 17.2852 34.2051 18.7102L35.6193 20.1244C36.8395 18.9042 38.3103 17.9635 39.9297 17.3675L39.239 15.4906ZM34.2051 18.7102C32.78 20.1353 31.6815 21.8528 30.9854 23.7441L32.8623 24.4349C33.4584 22.8154 34.399 21.3447 35.6193 20.1244L34.2051 18.7102ZM30.9854 23.7441C30.2887 25.6372 30.0177 27.6572 30.1787 29.6642L32.1723 29.5042C32.0341 27.7822 32.2669 26.0527 32.8623 24.4349L30.9854 23.7441ZM32.4952 41.139C34.174 39.7108 35.4904 37.9087 36.3348 35.8704L34.487 35.105C33.7648 36.8486 32.6383 38.3915 31.1992 39.6157L32.4952 41.139ZM36.3348 35.8704C37.1787 33.8331 37.5265 31.6244 37.3493 29.4264L35.3558 29.587C35.5075 31.4692 35.2097 33.3605 34.487 35.105L36.3348 35.8704ZM30.2046 30.0005C30.2906 31.0665 30.1221 32.1378 29.7129 33.1259L31.5608 33.8911C32.0912 32.6102 32.3097 31.2215 32.1981 29.8396L30.2046 30.0005ZM29.7129 33.1259C29.3038 34.1141 28.6656 34.9908 27.8511 35.684L29.1473 37.2071C30.2031 36.3086 31.0304 35.172 31.5608 33.8911L29.7129 33.1259ZM32.2372 51.6389C31.4931 51.0052 30.8955 50.2175 30.4857 49.3302L28.67 50.1688C29.2013 51.319 29.976 52.3401 30.9405 53.1615L32.2372 51.6389ZM30.4857 49.3302C30.0759 48.4429 29.8637 47.4772 29.8637 46.4999H27.8637C27.8637 47.7668 28.1388 49.0186 28.67 50.1688L30.4857 49.3302ZM29.8637 46.4999C29.8637 45.5225 30.0759 44.5568 30.4857 43.6695L28.67 42.8309C28.1388 43.9811 27.8637 45.2329 27.8637 46.4999H29.8637ZM30.4857 43.6695C30.8955 42.7823 31.4931 41.9946 32.2372 41.3609L30.9405 39.8382C29.976 40.6596 29.2013 41.6807 28.67 42.8309L30.4857 43.6695ZM27.5928 35.9009C26.0574 37.2074 24.8242 38.8319 23.9785 40.6619L25.794 41.5009C26.5182 39.9339 27.5742 38.5429 28.8889 37.4241L27.5928 35.9009ZM23.9785 40.6619C23.1328 42.4919 22.6948 44.4839 22.6948 46.4999H24.6948C24.6948 44.7736 25.0699 43.0679 25.794 41.5009L23.9785 40.6619ZM22.6948 46.4999C22.6948 48.5159 23.1328 50.5078 23.9785 52.3379L25.794 51.4989C25.0699 49.9318 24.6948 48.2262 24.6948 46.4999H22.6948ZM23.9785 52.3379C24.8242 54.1679 26.0574 55.7923 27.5928 57.0988L28.8889 55.5756C27.5742 54.4569 26.5182 53.0659 25.794 51.4989L23.9785 52.3379ZM37.3493 63.573C37.5256 61.3758 37.1774 59.1682 36.3335 57.132L34.4859 57.8977C35.2085 59.6413 35.5067 61.5317 35.3557 63.4131L37.3493 63.573ZM36.3335 57.132C35.4896 55.0957 34.174 53.2891 32.4952 51.8607L31.1992 53.384C32.6368 54.6071 33.7632 56.1541 34.4859 57.8977L36.3335 57.132ZM27.8511 57.3158C28.6656 58.0089 29.3038 58.8857 29.7129 59.8738L31.5608 59.1087C31.0304 57.8277 30.2031 56.6912 29.1473 55.7926L27.8511 57.3158ZM29.7129 59.8738C30.1221 60.862 30.2906 61.9332 30.2046 62.9993L32.1981 63.1601C32.3097 61.7782 32.0912 60.3896 31.5608 59.1087L29.7129 59.8738ZM44.5903 71.1763C43.6158 71.255 42.6357 71.1211 41.718 70.7838L41.028 72.661C42.2177 73.0983 43.4881 73.2719 44.7514 73.1698L44.5903 71.1763ZM41.718 70.7838C40.8003 70.4465 39.9668 69.9138 39.2753 69.2227L37.8615 70.6373C38.758 71.5333 39.8384 72.2237 41.028 72.661L41.718 70.7838ZM39.2753 69.2227C38.5837 68.5315 38.0505 67.6984 37.7126 66.7809L35.8358 67.472C36.2738 68.6614 36.965 69.7414 37.8615 70.6373L39.2753 69.2227ZM37.7126 66.7809C37.3747 65.8634 37.2402 64.8834 37.3183 63.9088L35.3247 63.749C35.2235 65.0123 35.3978 66.2827 35.8358 67.472L37.7126 66.7809ZM36.4016 62.8321L31.2556 62.4188L31.0955 64.4123L36.2415 64.8257L36.4016 62.8321ZM30.1788 63.3351C30.0167 65.3444 30.293 67.365 30.9887 69.257L32.8659 68.5667C32.2702 66.9467 32.0335 65.2165 32.1723 63.496L30.1788 63.3351ZM30.9887 69.257C31.6844 71.1489 32.7828 72.8672 34.208 74.2929L35.6225 72.8789C34.4021 71.6582 33.4616 70.1868 32.8659 68.5667L30.9887 69.257ZM34.208 74.2929C35.6331 75.7186 37.351 76.8176 39.2427 77.514L39.9336 75.6371C38.3138 75.0408 36.8428 74.0997 35.6225 72.8789L34.208 74.2929ZM39.2427 77.514C41.1344 78.2104 43.1549 78.4875 45.1642 78.3262L45.0042 76.3326C43.2836 76.4707 41.5535 76.2335 39.9336 75.6371L39.2427 77.514ZM46.081 77.2495L45.6677 72.0931L43.6741 72.2529L44.0874 77.4093L46.081 77.2495ZM67.1389 76.2625C66.5052 77.0066 65.7175 77.6042 64.8302 78.014L65.6688 79.8297C66.819 79.2985 67.8401 78.5238 68.6615 77.5592L67.1389 76.2625ZM64.8302 78.014C63.9429 78.4238 62.9772 78.6361 61.9999 78.6361V80.6361C63.2668 80.6361 64.5186 80.361 65.6688 79.8297L64.8302 78.014ZM61.9999 78.6361C61.0225 78.6361 60.0568 78.4238 59.1695 78.014L58.3309 79.8297C59.4811 80.361 60.7329 80.6361 61.9999 80.6361V78.6361ZM59.1695 78.014C58.2823 77.6042 57.4945 77.0066 56.8609 76.2625L55.3382 77.5592C56.1596 78.5238 57.1807 79.2985 58.3309 79.8297L59.1695 78.014ZM51.4009 80.9069C52.7074 82.4423 54.3319 83.6755 56.1619 84.5212L57.0009 82.7057C55.4338 81.9815 54.0428 80.9256 52.9241 79.6108L51.4009 80.9069ZM56.1619 84.5212C57.9919 85.3669 59.9839 85.8049 61.9999 85.8049V83.8049C60.2736 83.8049 58.5679 83.4299 57.0009 82.7057L56.1619 84.5212ZM61.9999 85.8049C64.0159 85.8049 66.0078 85.3669 67.8378 84.5212L66.9989 82.7057C65.4318 83.4299 63.7262 83.8049 61.9999 83.8049V85.8049ZM67.8378 84.5212C69.6679 83.6755 71.2923 82.4423 72.5988 80.9069L71.0756 79.6108C69.9569 80.9256 68.5659 81.9815 66.9989 82.7057L67.8378 84.5212ZM86.6815 63.9095C86.7603 64.8844 86.6263 65.8649 86.2887 66.7829L88.1658 67.4732C88.6034 66.2831 88.7771 65.0121 88.6749 63.7483L86.6815 63.9095ZM86.2887 66.7829C85.9511 67.701 85.418 68.5347 84.7264 69.2264L86.1406 70.6406C87.0372 69.744 87.7282 68.6633 88.1658 67.4732L86.2887 66.7829ZM84.7264 69.2264C84.0347 69.918 83.201 70.4511 82.2829 70.7887L82.9732 72.6658C84.1632 72.2282 85.244 71.5372 86.1406 70.6406L84.7264 69.2264ZM82.2829 70.7887C81.3649 71.1263 80.3844 71.2603 79.4095 71.1815L79.2483 73.175C80.5121 73.2771 81.7831 73.1034 82.9732 72.6658L82.2829 70.7887ZM78.3321 72.0981L77.9187 77.2441L79.9123 77.4043L80.3257 72.2583L78.3321 72.0981ZM78.8351 78.321C80.8444 78.4831 82.865 78.2067 84.757 77.511L84.0667 75.6339C82.4466 76.2296 80.7165 76.4662 78.9959 76.3274L78.8351 78.321ZM84.757 77.511C86.6489 76.8153 88.3672 75.7169 89.7929 74.2918L88.3789 72.8773C87.1581 74.0976 85.6868 75.0382 84.0667 75.6339L84.757 77.511ZM89.7929 74.2918C91.2186 72.8666 92.3176 71.1488 93.014 69.257L91.1371 68.5661C90.5408 70.186 89.5997 71.657 88.3789 72.8773L89.7929 74.2918ZM93.014 69.257C93.711 67.3635 93.9822 65.343 93.821 63.3355L91.8274 63.4956C91.9657 65.2181 91.7328 66.948 91.1371 68.5661L93.014 69.257ZM91.5042 51.8559C89.8256 53.2853 88.5106 55.0931 87.6677 57.1304L89.5157 57.8951C90.2375 56.1506 91.3635 54.6026 92.8009 53.3786L91.5042 51.8559ZM87.6677 57.1304C86.8247 59.1677 86.4778 61.3761 86.6556 63.5737L88.6491 63.4124C88.4968 61.5306 88.7939 59.6396 89.5157 57.8951L87.6677 57.1304ZM93.7951 62.9993C93.7091 61.9332 93.8776 60.862 94.2868 59.8738L92.439 59.1087C91.9085 60.3896 91.6901 61.7782 91.8016 63.1601L93.7951 62.9993ZM94.2868 59.8738C94.696 58.8857 95.3341 58.0089 96.1486 57.3158L94.8524 55.7926C93.7966 56.6912 92.9694 57.8277 92.439 59.1087L94.2868 59.8738ZM96.2623 55.9064L92.9143 51.9694L91.3907 53.265L94.7387 57.202L96.2623 55.9064ZM91.7625 41.3609C92.5066 41.9946 93.1042 42.7823 93.514 43.6695L95.3297 42.8309C94.7985 41.6807 94.0238 40.6596 93.0592 39.8382L91.7625 41.3609ZM93.514 43.6695C93.9238 44.5568 94.1361 45.5225 94.1361 46.4999H96.1361C96.1361 45.2329 95.8609 43.9811 95.3297 42.8309L93.514 43.6695ZM94.1361 46.4999C94.1361 47.4772 93.9238 48.4429 93.514 49.3302L95.3297 50.1688C95.8609 49.0186 96.1361 47.7668 96.1361 46.4999H94.1361ZM93.514 49.3302C93.1034 50.2192 92.5051 51.0116 91.7625 51.644L93.0592 53.1667C94.0252 52.344 94.7993 51.3173 95.3297 50.1688L93.514 49.3302ZM96.4069 57.0988C97.9423 55.7923 99.1755 54.1679 100.021 52.3379L98.2057 51.4989C97.4815 53.0659 96.4256 54.4569 95.1108 55.5756L96.4069 57.0988ZM100.021 52.3379C100.867 50.5078 101.305 48.5159 101.305 46.4999H99.3049C99.3049 48.2262 98.9299 49.9318 98.2057 51.4989L100.021 52.3379ZM101.305 46.4999C101.305 44.4839 100.867 42.4919 100.021 40.6619L98.2057 41.5009C98.9299 43.0679 99.3049 44.7736 99.3049 46.4999H101.305ZM100.021 40.6619C99.1755 38.8319 97.9423 37.2074 96.4069 35.9009L95.1108 37.4241C96.4256 38.5429 97.4815 39.9339 98.2057 41.5009L100.021 40.6619ZM86.6556 29.4264C86.4787 31.6231 86.826 33.8304 87.6689 35.8667L89.5169 35.1017C88.7951 33.3581 88.4977 31.468 88.6491 29.587L86.6556 29.4264ZM87.6689 35.8667C88.5119 37.9029 89.8264 39.7098 91.5042 41.1387L92.8009 39.6161C91.3642 38.3925 90.2387 36.8453 89.5169 35.1017L87.6689 35.8667ZM96.1486 35.684C95.3341 34.9908 94.696 34.1141 94.2868 33.1259L92.439 33.8911C92.9694 35.172 93.7966 36.3086 94.8524 37.2071L96.1486 35.684ZM94.2868 33.1259C93.8776 32.1378 93.7091 31.0665 93.7951 30.0005L91.8016 29.8396C91.6901 31.2215 91.9085 32.6102 92.439 33.8911L94.2868 33.1259ZM79.4139 21.8235C80.3881 21.7455 81.3676 21.8799 82.2848 22.2175L82.9757 20.3407C81.7868 19.903 80.517 19.7287 79.2542 19.8299L79.4139 21.8235ZM82.2848 22.2175C83.202 22.5552 84.0349 23.0879 84.7259 23.779L86.1401 22.3648C85.2443 21.4689 84.1646 20.7783 82.9757 20.3407L82.2848 22.2175ZM84.7259 23.779C85.417 24.4701 85.9498 25.303 86.2874 26.2201L88.1643 25.5292C87.7266 24.3403 87.036 23.2606 86.1401 22.3648L84.7259 23.779ZM86.2874 26.2201C86.6239 27.1344 86.7545 28.1137 86.6762 29.091L88.6698 29.2507C88.7708 27.991 88.603 26.721 88.1643 25.5292L86.2874 26.2201ZM93.821 29.6642C93.9822 27.6568 93.711 25.6362 93.014 23.7427L91.1371 24.4336C91.7328 26.0517 91.9657 27.7817 91.8274 29.5042L93.821 29.6642ZM93.014 23.7427C92.3176 21.851 91.2186 20.1331 89.7929 18.708L88.3789 20.1225C89.5997 21.3428 90.5408 22.8138 91.1371 24.4336L93.014 23.7427ZM89.7929 18.708C88.3672 17.2828 86.6489 16.1844 84.757 15.4887L84.0667 17.3659C85.6868 17.9616 87.1581 18.9021 88.3789 20.1225L89.7929 18.708ZM84.757 15.4887C82.865 14.7931 80.8444 14.5167 78.8351 14.6788L78.9959 16.6723C80.7165 16.5335 82.4466 16.7702 84.0667 17.3659L84.757 15.4887ZM77.9188 15.7565L78.3373 20.9077L80.3307 20.7457L79.9123 15.5946L77.9188 15.7565ZM67.3607 16.9952C68.7891 18.674 70.5957 19.9896 72.632 20.8335L73.3977 18.9859C71.6541 18.2632 70.1071 17.1368 68.884 15.6992L67.3607 16.9952ZM72.632 20.8335C74.6682 21.6774 76.8758 22.0256 79.073 21.8493L78.9131 19.8557C77.0317 20.0067 75.1413 19.7085 73.3977 18.9859L72.632 20.8335ZM78.4993 14.7046C77.4332 14.7906 76.362 14.6221 75.3738 14.2129L74.6087 16.0608C75.8896 16.5912 77.2782 16.8097 78.6601 16.6981L78.4993 14.7046ZM75.3738 14.2129C74.3857 13.8038 73.5089 13.1656 72.8158 12.3511L71.2926 13.6473C72.1912 14.7031 73.3277 15.5304 74.6087 16.0608L75.3738 14.2129ZM72.5988 12.0928C71.2923 10.5574 69.6679 9.32424 67.8378 8.47853L66.9989 10.294C68.5659 11.0182 69.9569 12.0742 71.0756 13.3889L72.5988 12.0928ZM67.8378 8.47853C66.0078 7.63283 64.0159 7.19482 61.9999 7.19482V9.19482C63.7262 9.19482 65.4318 9.56988 66.9989 10.294L67.8378 8.47853ZM61.9999 7.19482C59.9839 7.19482 57.9919 7.63283 56.1619 8.47853L57.0009 10.294C58.5679 9.56988 60.2736 9.19482 61.9999 9.19482V7.19482ZM56.1619 8.47853C54.3319 9.32424 52.7074 10.5574 51.4009 12.0928L52.9241 13.3889C54.0428 12.0742 55.4338 11.0182 57.0009 10.294L56.1619 8.47853ZM56.8557 16.7372C57.4882 15.9946 58.2805 15.3963 59.1695 14.9857L58.3309 13.17C57.1825 13.7005 56.1557 14.4745 55.333 15.4405L56.8557 16.7372ZM59.1695 14.9857C60.0568 14.5759 61.0225 14.3637 61.9999 14.3637V12.3637C60.7329 12.3637 59.4811 12.6388 58.3309 13.17L59.1695 14.9857ZM61.9999 14.3637C62.9772 14.3637 63.9429 14.5759 64.8302 14.9857L65.6688 13.17C64.5186 12.6388 63.2668 12.3637 61.9999 12.3637V14.3637ZM64.8302 14.9857C65.7192 15.3963 66.5116 15.9946 67.144 16.7372L68.6667 15.4405C67.844 14.4745 66.8173 13.7005 65.6688 13.17L64.8302 14.9857ZM56.644 76.0043C55.4042 74.548 53.8775 73.3629 52.1593 72.5229L51.2809 74.3197C52.7522 75.039 54.0595 76.0538 55.1211 77.3008L56.644 76.0043ZM52.1593 72.5229C50.4428 71.6838 48.57 71.2011 46.6574 71.1172L46.5697 73.1152C48.2039 73.187 49.8079 73.5996 51.2809 74.3197L52.1593 72.5229ZM46.3422 78.2819C47.2686 78.3227 48.1766 78.5539 49.0097 78.9612L49.8881 77.1644C48.8082 76.6365 47.6311 76.3367 46.4302 76.2838L46.3422 78.2819ZM49.0097 78.9612C49.8428 79.3684 50.583 79.9429 51.1842 80.6489L52.7069 79.3522C51.9275 78.437 50.968 77.6923 49.8881 77.1644L49.0097 78.9612ZM52.5934 80.7623L56.5304 77.4143L55.2347 75.8908L51.2977 79.2388L52.5934 80.7623ZM46.6493 71.1169C46.0729 71.0962 45.5014 71.1112 44.9388 71.1495L45.0746 73.1449C45.5816 73.1104 46.0828 73.0978 46.5778 73.1156L46.6493 71.1169ZM44.0099 72.2272L44.4232 77.3784L46.4168 77.2184L46.0035 72.0672L44.0099 72.2272ZM45.5048 78.2948C45.7832 78.2711 46.0589 78.2667 46.3325 78.2814L46.4399 76.2843C46.0728 76.2646 45.7045 76.2706 45.3352 76.302L45.5048 78.2948ZM50.0832 113.667V74.6995H48.0832V113.667H50.0832ZM49.0832 73.6995H43.9165V75.6995H49.0832V73.6995ZM42.9165 74.6995V113.667H44.9165V74.6995H42.9165ZM43.9165 114.667H49.0832V112.667H43.9165V114.667ZM79.0662 71.1495C78.4951 71.1106 77.9223 71.1014 77.3502 71.122L77.4222 73.1207C77.9249 73.1026 78.4283 73.1107 78.9302 73.1449L79.0662 71.1495ZM77.6672 78.2814C77.9408 78.2667 78.2166 78.2711 78.4949 78.2948L78.6645 76.302C78.2953 76.2706 77.9269 76.2646 77.5599 76.2843L77.6672 78.2814ZM79.5764 77.3794L79.9949 72.2282L78.0015 72.0662L77.583 77.2174L79.5764 77.3794ZM77.3419 71.1224C75.4322 71.2069 73.5603 71.6841 71.8431 72.524L72.7218 74.3206C74.1923 73.6014 75.7951 73.1928 77.4305 73.1204L77.3419 71.1224ZM71.8431 72.524C70.1259 73.364 68.6001 74.5487 67.3609 76.0043L68.8838 77.3008C69.9449 76.0543 71.2514 75.0399 72.7218 74.3206L71.8431 72.524ZM72.8155 80.6489C73.4168 79.9429 74.157 79.3684 74.99 78.9612L74.1117 77.1644C73.0318 77.6923 72.0722 78.437 71.2929 79.3522L72.8155 80.6489ZM74.99 78.9612C75.8231 78.5539 76.7312 78.3227 77.6575 78.2819L77.5695 76.2838C76.3687 76.3367 75.1916 76.6365 74.1117 77.1644L74.99 78.9612ZM73.9165 74.7047V113.667H75.9165V74.7047H73.9165ZM74.9165 114.667H80.0832V112.667H74.9165V114.667ZM81.0832 113.667V74.6995H79.0832V113.667H81.0832ZM80.0822 73.6995L74.9155 73.7047L74.9175 75.7047L80.0842 75.6995L80.0822 73.6995Z" fill="white" mask="url(#path-1-inside-1_116_718)"/>
<path d="M72.3332 41.3333L56.8332 56.8333L51.6665 51.6666" stroke="white" stroke-width="3" stroke-linecap="round" stroke-linejoin="round"/>
</svg>
